<svg width="18" height="18" viewBox="0 0 18 18" fill="none" xmlns="http://www.w3.org/2000/svg">
<path d="M8.99997 0.575195C4.37668 0.575195 0.575317 4.37657 0.575317 8.99985C0.575317 13.6231 4.37668 17.4245 8.99997 17.4245C13.6233 17.4245 17.4246 13.6231 17.4246 8.99985C17.4246 4.37657 13.6233 0.575195 8.99997 0.575195ZM14.5479 4.58204C15.4726 5.81492 16.089 7.25328 16.089 8.89711C15.7808 8.79437 14.4452 8.58889 12.8013 8.58889C12.2876 8.58889 11.7739 8.58889 11.1575 8.69163C11.1575 8.58889 11.0548 8.48615 11.0548 8.38341C10.952 8.07519 10.7466 7.66424 10.6438 7.35602C13.1096 6.32862 14.2397 4.89026 14.5479 4.58204ZM8.99997 1.91081C10.8493 1.91081 12.4931 2.62999 13.726 3.65739C13.5205 3.96561 12.4931 5.30122 10.0274 6.22588C8.89723 4.17108 7.66436 2.52725 7.35614 2.11629C7.86984 2.01355 8.38353 1.91081 8.99997 1.91081ZM5.91778 2.62999C6.12326 2.93821 7.35614 4.68478 8.48627 6.73958C5.40408 7.5615 2.73285 7.5615 2.01367 7.5615H1.91094C2.42464 5.30122 3.96572 3.55465 5.91778 2.62999ZM1.80819 8.99985C1.80819 8.89711 1.80819 8.89711 1.80819 8.79437C1.80819 8.79437 1.91093 8.79437 2.01367 8.79437C2.93832 8.79437 6.02053 8.69163 9.10272 7.76697C9.3082 8.17793 9.51368 8.48615 9.61642 8.89711C9.51368 8.89711 9.41094 8.89711 9.41094 8.99985C5.81505 10.13 3.86298 13.2122 3.55476 13.7259C2.52737 12.493 1.80819 10.8492 1.80819 8.99985ZM8.99997 16.1916C7.35614 16.1916 5.81504 15.6779 4.68491 14.7533C4.89039 14.3423 6.32874 11.6711 10.2328 10.3355C11.2602 12.904 11.6712 15.0615 11.7739 15.6779C10.8493 15.9862 9.92463 16.1916 8.99997 16.1916ZM13.0068 14.856C12.9041 14.3423 12.4931 12.2875 11.6712 9.82177C12.1849 9.71903 12.6986 9.71903 13.1096 9.71903C14.6507 9.71903 15.7808 10.0272 16.089 10.13C15.6781 12.1848 14.5479 13.8286 13.0068 14.856Z" fill="white"/>
</svg>
