<svg width="101" height="31" viewBox="0 0 101 31" fill="none" xmlns="http://www.w3.org/2000/svg">
<path d="M58.2039 1.48076V3.7771C58.2101 3.93109 58.2766 4.07649 58.3889 4.18206C58.5013 4.28764 58.6506 4.34495 58.8047 4.3417H64.1416L57.9925 13.1362C57.6038 13.7016 57.6038 14.337 57.6038 14.6902V17.0211C57.6038 17.3743 57.9923 17.7274 58.3457 17.5509C61.8089 15.6789 66.0143 15.8554 69.1596 17.5155C69.548 17.7272 69.9015 17.3389 69.9015 16.9857V14.5487C69.866 14.2308 69.7601 13.8776 69.3714 13.6657C67.6047 12.6771 65.5194 12.3945 63.5403 12.4299L68.8412 4.87149C69.336 4.16482 69.6187 3.74121 69.6187 3.42334V1.48076C69.6126 1.32667 69.5462 1.18113 69.4339 1.07545C69.3215 0.969764 69.1721 0.912372 69.0179 0.915618H58.7694C58.694 0.911607 58.6187 0.923478 58.5483 0.950459C58.4779 0.977441 58.4139 1.01893 58.3606 1.07223C58.3073 1.12553 58.2658 1.18945 58.2388 1.25983C58.2118 1.33021 58.1999 1.40549 58.2039 1.48076Z" fill="#AAAAB7"/>
<path d="M17.7402 18.0103H20.8501C21.0028 18.0157 21.1521 17.9647 21.2694 17.867C21.3868 17.7692 21.464 17.6316 21.4862 17.4806V9.00381C21.4862 8.94846 21.4861 8.89252 21.4861 8.83608C21.484 6.98367 21.4814 4.58886 23.6419 4.58886C25.6146 4.58886 25.582 6.73626 25.5559 8.45317C25.553 8.64315 25.5502 8.82786 25.5502 9.00381V17.4806C25.5502 17.7632 25.7976 18.0104 26.1157 18.0457H29.2255C29.3798 18.0489 29.5291 17.9915 29.6415 17.8859C29.7538 17.7802 29.8202 17.6346 29.8263 17.4806V9.00381C29.8263 8.92289 29.826 8.83867 29.8257 8.75182C29.8228 7.8531 29.8189 6.67177 30.109 5.93106C30.2596 5.55441 30.5172 5.23002 30.85 4.99782C31.1828 4.76563 31.5763 4.63576 31.982 4.62422C32.9009 4.62422 33.5724 4.94209 33.8197 6.00166C33.9305 6.50055 33.9109 7.65196 33.8973 8.44886C33.8936 8.66744 33.8903 8.85935 33.8903 9.00381V17.4806C33.8903 17.7632 34.1377 18.0104 34.4558 18.0457H37.5307C37.6849 18.0489 37.8343 17.9915 37.9466 17.8859C38.0589 17.7802 38.1253 17.6346 38.1314 17.4806V7.37921C38.1314 7.12182 38.1361 6.85974 38.1408 6.59566C38.1678 5.08401 38.196 3.50636 37.3539 2.36387C36.4704 1.12764 35.0568 0.597855 33.7492 0.597855C31.9113 0.597855 30.1795 1.55147 29.4376 3.56465C28.5893 1.55147 27.3525 0.597855 25.4088 0.597855C23.5005 0.597855 22.0513 1.55147 21.3094 3.56465H21.2388V1.48076C21.2274 1.33797 21.1631 1.20456 21.0585 1.10659C20.954 1.00862 20.8166 0.953137 20.6733 0.950971H17.7755C17.6213 0.947753 17.4719 1.00516 17.3596 1.11084C17.2472 1.21652 17.1809 1.36204 17.1748 1.51611V17.4805C17.1978 17.6186 17.2656 17.7452 17.3678 17.841C17.47 17.9367 17.6009 17.9962 17.7402 18.0103Z" fill="#AAAAB7"/>
<path fill-rule="evenodd" clip-rule="evenodd" d="M85.5921 9.6043C85.5921 4.55362 83.083 0.597855 78.4535 0.597855C73.93 0.597855 71.4209 4.48291 71.4562 9.46299C71.4562 14.4077 73.93 18.3635 78.4535 18.3635C82.8357 18.3635 85.5921 14.4784 85.5921 9.6043ZM76.0151 8.96856C76.0151 7.02598 76.1564 3.88252 78.4535 3.88252C79.443 3.88252 80.1497 4.30624 80.5032 5.43652C80.892 6.70811 80.9626 8.33271 80.9626 9.6749C80.9626 11.7234 80.8213 15.0788 78.4182 15.0788C76.0136 15.0788 76.0146 11.0261 76.0151 9.05075L76.0151 8.96856Z" fill="#AAAAB7"/>
<path d="M88.4546 18.0103H91.5644C91.7209 18.0088 91.8715 17.9511 91.9884 17.8472C92.1054 17.7433 92.1807 17.6006 92.2004 17.4454V8.82704C92.2004 7.73211 92.271 6.77817 92.695 5.78953C93.0485 5.01237 93.7554 4.51805 94.4973 4.51805C96.4798 4.51805 96.4598 6.66897 96.4438 8.38824C96.4424 8.53844 96.441 8.68535 96.441 8.82725V17.5156C96.4764 17.7628 96.7238 17.9746 97.0065 18.0099H100.117C100.26 18.0163 100.401 17.9693 100.512 17.878C100.623 17.7868 100.696 17.6576 100.717 17.5156V7.44959C100.717 5.89549 100.717 3.74099 99.9046 2.46951C99.0211 1.09185 97.6429 0.59753 96.2647 0.59753C94.109 0.59753 92.9074 1.62175 92.0239 3.8116H91.9532V1.37459C91.9218 1.24698 91.8496 1.13311 91.7475 1.05024C91.6455 0.967376 91.5192 0.920033 91.3878 0.915402H88.4899C88.3427 0.91652 88.2009 0.970738 88.0905 1.06808C87.9801 1.16542 87.9086 1.29934 87.8891 1.44519V17.4451C87.8891 17.7277 88.1365 17.9749 88.4546 18.0103Z" fill="#AAAAB7"/>
<path fill-rule="evenodd" clip-rule="evenodd" d="M52.8264 18.1296C52.9594 18.117 53.0852 18.0629 53.1859 17.975L53.1871 17.9749C53.4129 17.7868 53.7011 17.5409 54.0089 17.2782C54.5682 16.8008 55.1924 16.2681 55.6255 15.9264C55.8728 15.7498 55.8375 15.3966 55.6255 15.1141C55.5574 15.0162 55.4888 14.9209 55.4207 14.8264C54.924 14.1368 54.4593 13.4916 54.4593 12.2179V7.3791C54.4593 7.21739 54.4602 7.05656 54.4611 6.89678C54.4713 5.03292 54.4807 3.31179 53.0811 2.01054C51.8795 0.845016 49.9006 0.456543 48.381 0.456543C45.4125 0.456543 42.1259 1.55147 41.4191 5.22471C41.3485 5.61329 41.6313 5.78985 41.8786 5.86045L44.8824 6.17833C45.1652 6.17833 45.3419 5.8957 45.4125 5.61319C45.6599 4.34159 46.7201 3.74121 47.9216 3.74121C48.5572 3.74121 49.2641 3.98837 49.6528 4.55351C50.0589 5.11558 50.0507 5.87111 50.0434 6.55109C50.0424 6.64021 50.0414 6.72804 50.0414 6.81396V7.20243C49.7484 7.23689 49.4405 7.26949 49.1228 7.30311C47.4871 7.47623 45.5956 7.67644 44.1751 8.29736C42.2309 9.14512 40.8527 10.8404 40.8527 13.3834C40.8527 16.5975 42.9024 18.2222 45.5176 18.2222C47.7085 18.2222 48.9455 17.6918 50.6417 15.9617C50.7244 16.0803 50.7994 16.1907 50.8706 16.2953C51.2867 16.9069 51.5689 17.3217 52.444 18.0456C52.5595 18.1129 52.6933 18.1423 52.8264 18.1296ZM50.0409 10.571C50.0408 10.5083 50.0407 10.4451 50.0407 10.3814V9.7108C47.779 9.7108 45.4112 10.2053 45.4112 12.8543C45.4112 14.1965 46.118 15.1147 47.3195 15.1147C48.203 15.1147 48.9806 14.5849 49.4752 13.7019C50.0442 12.6646 50.0427 11.6911 50.0409 10.571Z" fill="#AAAAB7"/>
<path fill-rule="evenodd" clip-rule="evenodd" d="M11.9737 18.1296C12.1068 18.117 12.2325 18.0629 12.3332 17.975L12.3344 17.9749C12.5602 17.7868 12.8484 17.5409 13.1562 17.2782C13.7155 16.8008 14.3397 16.2681 14.7728 15.9264C15.0201 15.7498 14.9849 15.3966 14.7728 15.1141C14.7047 15.0162 14.6361 14.9209 14.568 14.8264C14.0713 14.1368 13.6066 13.4916 13.6066 12.2179V7.3791C13.6066 7.2174 13.6075 7.05657 13.6084 6.89678C13.6186 5.03292 13.628 3.31179 12.2284 2.01054C11.0268 0.845016 9.0479 0.456543 7.52829 0.456543C4.55981 0.456543 1.27317 1.55147 0.566428 5.22471C0.495786 5.61329 0.77857 5.78985 1.02587 5.86045L4.02972 6.17833C4.31251 6.17833 4.48917 5.8957 4.55981 5.61319C4.80722 4.34159 5.86739 3.74121 7.06895 3.74121C7.70452 3.74121 8.41137 3.98837 8.80006 4.55351C9.20617 5.11558 9.19801 5.87111 9.19067 6.5511C9.1897 6.64022 9.18875 6.72804 9.18875 6.81396V7.20243C8.89575 7.23689 8.58777 7.26949 8.27015 7.30311C6.63443 7.47623 4.74289 7.67644 3.32244 8.29736C1.37822 9.14512 0 10.8404 0 13.3834C0 16.5975 2.0497 18.2222 4.66486 18.2222C6.85584 18.2222 8.09278 17.6918 9.78905 15.9617C9.87166 16.0803 9.94673 16.1907 10.0179 16.2953C10.434 16.9069 10.7162 17.3217 11.5913 18.0456C11.7068 18.1129 11.8406 18.1423 11.9737 18.1296ZM9.22357 10.571C9.22348 10.5083 9.22338 10.4451 9.22338 10.3814V9.7108C6.96164 9.7108 4.59389 10.2053 4.59389 12.8543C4.59389 14.1965 5.30064 15.1147 6.5022 15.1147C7.38571 15.1147 8.16331 14.5849 8.65792 13.7019C9.22687 12.6646 9.22534 11.6911 9.22357 10.571Z" fill="#AAAAB7"/>
<path d="M64.918 21.3656C64.1761 20.412 59.9704 20.9065 58.0975 21.1537C57.532 21.2243 57.426 20.7299 57.9561 20.3767C61.3134 18.0103 66.791 18.7166 67.4271 19.4937C68.0632 20.2707 67.2505 25.7801 64.1047 28.3941C63.6101 28.7826 63.1505 28.5707 63.3628 28.0409L63.3998 27.9486C64.1235 26.1418 65.6474 22.3374 64.918 21.3656Z" fill="#AAAAB7"/>
<path d="M62.4797 24.1561C56.6487 28.4653 48.1672 30.7609 40.8519 30.7609C30.6034 30.7609 21.4152 26.9817 14.418 20.6949C13.8879 20.2006 14.3474 19.5293 15.0187 19.9178C22.546 24.2974 31.8404 26.9111 41.4527 26.9111C47.9198 26.9111 55.0583 25.569 61.6315 22.7787C62.6207 22.3902 63.4339 23.4498 62.4797 24.1561Z" fill="#AAAAB7"/>
</svg>
