<svg width="60" height="60" viewBox="0 0 60 60" fill="none" xmlns="http://www.w3.org/2000/svg">
<rect opacity="0.2" x="0.5" y="0.5" width="59" height="59" rx="19.5" stroke="white"/>
<path fill-rule="evenodd" clip-rule="evenodd" d="M19.9967 19.6948C20.9868 20.4993 21.3583 20.4379 23.2177 20.3138L40.747 19.2613C41.1187 19.2613 40.8096 18.8904 40.6856 18.8287L37.7744 16.7241C37.2165 16.2911 36.4734 15.7951 35.049 15.9192L18.0754 17.1572C17.4564 17.2185 17.3327 17.5281 17.5792 17.7761L19.9967 19.6948ZM21.0491 23.78V42.2238C21.0491 43.2151 21.5444 43.5859 22.6593 43.5246L41.924 42.4098C43.0394 42.3485 43.1636 41.6667 43.1636 40.8615V22.5414C43.1636 21.7375 42.8544 21.304 42.1716 21.3659L22.0398 22.5414C21.2969 22.6039 21.049 22.9755 21.049 23.78H21.0491ZM40.0671 24.7693C40.1906 25.3269 40.0671 25.884 39.5085 25.9467L38.5803 26.1317V39.7481C37.7744 40.1812 37.0312 40.4289 36.4119 40.4289C35.4204 40.4289 35.1721 40.1192 34.4295 39.1913L28.3579 29.6597V38.8818L30.2792 39.3153C30.2792 39.3153 30.2792 40.4289 28.7291 40.4289L24.4559 40.6768C24.3318 40.4289 24.4559 39.8105 24.8894 39.6866L26.0045 39.3775V27.1842L24.4562 27.0601C24.332 26.5025 24.6413 25.6985 25.5091 25.6361L30.0933 25.3271L36.4119 34.9828V26.4411L34.8009 26.2562C34.6773 25.5746 35.1721 25.0796 35.7917 25.0182L40.0671 24.7693ZM16.6503 15.4861L34.3055 14.186C36.4736 14 37.0315 14.1246 38.3942 15.1144L44.0299 19.0756C44.9599 19.7567 45.2698 19.9422 45.2698 20.6847V42.4098C45.2698 43.7714 44.7738 44.5766 43.0397 44.6998L22.5366 45.9379C21.2349 46 20.6153 45.8145 19.9336 44.9475L15.7833 39.5627C15.0397 38.5715 14.7305 37.8299 14.7305 36.9624V17.6516C14.7305 16.5382 15.2266 15.6094 16.6503 15.4861Z" fill="white"/>
</svg>
