<svg width="60" height="60" viewBox="0 0 60 60" fill="none" xmlns="http://www.w3.org/2000/svg">
<rect opacity="0.2" x="0.5" y="0.5" width="59" height="59" rx="19.5" stroke="white"/>
<path fill-rule="evenodd" clip-rule="evenodd" d="M28.5777 29.8058L36.4167 23.8808V23.8774L36.4169 23.8806V35.7308L36.4167 35.734V35.7308L28.5777 29.8058ZM20.8722 29.8058L17.0996 33.2549C16.5071 33.8013 16.5407 34.7473 17.17 35.251C17.17 35.251 18.0417 36.0621 18.357 36.2872C18.8416 36.6328 19.4782 36.6723 19.9581 36.3208L24.3595 32.994L34.9189 42.648C35.1876 42.9522 35.5763 43.0022 35.8904 42.8717L35.8902 42.8738L41.6968 40.1483C42.4802 39.8717 43.0003 39.1278 43.0003 38.2917V21.3197C43.0003 20.4836 42.4802 19.7397 41.6968 19.4632L35.8902 16.7376L35.8904 16.7398C35.5763 16.6093 35.1876 16.6594 34.9189 16.9636L24.3595 26.6175L19.9581 23.2907C19.4782 22.9392 18.8416 22.9787 18.357 23.3243C18.0417 23.5495 17.17 24.3606 17.17 24.3606C16.5407 24.8642 16.5071 25.8102 17.0996 26.3566L20.8722 29.8058Z" fill="white"/>
</svg>
