<svg width="60" height="60" viewBox="0 0 60 60" fill="none" xmlns="http://www.w3.org/2000/svg">
<rect opacity="0.2" x="0.5" y="0.5" width="59" height="59" rx="19.5" stroke="white"/>
<path d="M37.7241 25.0139C37.7241 25.0139 35.131 33.829 34.9214 34.5567C34.8441 33.8171 32.9352 18 32.9352 18C28.5103 18 26.1379 21.4115 24.9021 24.9901C24.9021 24.9901 21.7462 33.8171 21.4814 34.5686C21.4593 33.8887 20.9959 25.0974 20.9959 25.0974C20.7421 20.7197 17.0124 18.0358 14 18.0358L17.6524 41.9881C22.2759 41.9642 24.7807 38.5765 26.0938 34.998C26.0938 34.998 28.8855 27.2207 28.9848 26.8509C29.0069 27.1849 30.971 42 30.971 42C35.6166 42 38.1103 38.8151 39.4676 35.3559L46 18.0358C41.3986 18.0239 38.9821 21.4235 37.7241 25.0139Z" fill="white"/>
</svg>
