<svg width="125" height="33" viewBox="0 0 125 33" fill="none" xmlns="http://www.w3.org/2000/svg">
<path d="M11.7298 0.997803C10.008 0.997803 8.50146 2.39676 8.50146 4.22617C8.50146 5.94797 9.90042 7.45454 11.7298 7.45454H14.9582V4.22617C14.8506 2.39676 13.4516 0.997803 11.7298 0.997803Z" fill="white"/>
<path d="M11.7297 9.49927H3.22837C1.50657 9.49927 0 10.8982 0 12.7276C0 14.4494 1.39896 15.956 3.22837 15.956H11.7297C13.4515 15.956 14.9581 14.557 14.9581 12.7276C14.8505 10.8982 13.4515 9.49927 11.7297 9.49927Z" fill="white"/>
<path d="M31.8532 12.62C31.8532 10.8982 30.4543 9.3916 28.6249 9.3916C26.9031 9.3916 25.3965 10.7906 25.3965 12.62V15.8483H28.6249C30.4543 15.8483 31.8532 14.4494 31.8532 12.62Z" fill="white"/>
<path d="M20.2311 15.8483C21.9529 15.8483 23.4594 14.4493 23.4594 12.6199V4.11851C23.4594 2.39671 22.0605 0.890137 20.2311 0.890137C18.5093 0.890137 17.0027 2.2891 17.0027 4.11851V12.6199C17.0027 14.4493 18.4016 15.8483 20.2311 15.8483Z" fill="white"/>
<path d="M20.2311 26.502H17.0027V29.7303C17.0027 31.4521 18.4016 32.9587 20.2311 32.9587C21.9529 32.9587 23.4594 31.5597 23.4594 29.7303C23.3518 27.9009 21.9529 26.502 20.2311 26.502Z" fill="white"/>
<path d="M28.7324 18.0005H20.2311C18.5093 18.0005 17.0027 19.3994 17.0027 21.2289C17.0027 22.9507 18.4016 24.4572 20.2311 24.4572H28.7324C30.4542 24.4572 31.9608 23.0583 31.9608 21.2289C31.8532 19.3994 30.4542 18.0005 28.7324 18.0005Z" fill="white"/>
<path d="M0 21.1214C0 22.8432 1.39896 24.3498 3.22837 24.3498C4.95017 24.3498 6.45674 22.9508 6.45674 21.1214V17.8931H3.22837C1.39896 18.0007 0 19.3996 0 21.1214Z" fill="white"/>
<path d="M11.7298 18.0005C10.008 18.0005 8.50146 19.3994 8.50146 21.2289V29.7302C8.50146 31.452 9.90042 32.9586 11.7298 32.9586C13.4516 32.9586 14.9582 31.5596 14.9582 29.7302V21.2289C14.8506 19.3994 13.4516 18.0005 11.7298 18.0005Z" fill="white"/>
<path d="M99.7566 23.9194C99.0033 24.565 98.1424 24.8879 97.1739 24.8879C95.8826 24.8879 94.6988 24.3498 93.8379 23.1661C92.977 21.9823 92.5466 20.3681 92.5466 18.3235C92.5466 16.4941 92.977 14.8799 93.7303 13.5886C94.5912 12.2972 95.6673 11.6515 97.0663 11.6515C97.9272 11.6515 98.6805 11.9744 99.3261 12.6201C99.9718 13.2657 100.402 13.9114 100.725 14.7723L104.276 13.8038C103.953 12.2972 103.093 11.0059 101.801 9.82214C100.51 8.6384 98.8957 8.10034 96.9587 8.10034C94.376 8.10034 92.2237 9.06885 90.5019 10.8983C88.8877 12.7277 88.0269 15.2028 88.0269 18.3235C88.0269 21.4443 88.8877 23.9194 90.5019 25.7488C92.1161 27.5782 94.2684 28.5467 96.9587 28.5467C98.8957 28.5467 100.51 28.0086 101.909 26.8249C103.308 25.6412 104.276 24.2422 104.707 22.7356L101.156 21.6595C101.048 22.5204 100.51 23.2737 99.7566 23.9194Z" fill="white"/>
<path d="M77.1579 8.20801C75.6513 8.20801 74.1448 8.53084 72.7458 9.17652C71.3469 9.82219 70.1631 10.6831 69.1946 11.8668L71.7773 14.0191C73.2839 12.2973 75.1133 11.4364 77.2655 11.4364C78.3417 11.4364 79.3102 11.6516 79.9558 12.1897C80.6015 12.7277 80.9244 13.481 80.9244 14.3419V15.418C80.1711 15.6333 78.7721 15.9561 76.8351 16.1713C71.4545 16.9246 68.7642 19.1845 68.7642 22.7357C68.7642 24.3499 69.4098 25.7488 70.5936 26.8249C71.7773 27.9011 73.3915 28.4391 75.5437 28.4391C76.8351 28.4391 78.0188 28.1163 78.9873 27.5782C79.9558 26.9326 80.7091 26.2869 81.032 25.426V27.7935H85.1212V15.9561C85.1212 13.481 84.4756 11.544 83.2918 10.145C82.1081 8.85368 80.0635 8.20801 77.1579 8.20801ZM80.9244 20.2606C80.9244 21.6596 80.4939 22.8433 79.5254 23.7042C78.5569 24.5651 77.4808 24.9955 76.1894 24.9955C75.2209 24.9955 74.4676 24.7803 73.9295 24.3499C73.3915 23.8118 73.0687 23.2737 73.0687 22.5204C73.0687 20.691 74.4676 19.6149 77.2655 19.1845C78.6645 18.9692 79.9558 18.754 80.9244 18.5388V20.2606Z" fill="white"/>
<path d="M117.297 16.6017L124.4 8.74603H119.127L112.24 16.3865V0.782715H108.15V27.901H112.24V22.09L114.607 19.5073L119.88 27.901H124.83L117.297 16.6017Z" fill="white"/>
<path d="M51.2236 17.1398C51.116 17.1398 50.9007 17.0322 50.6855 16.9246C49.717 16.6018 49.0713 16.3865 48.5333 16.1713C47.9952 15.9561 47.5648 15.6333 47.0267 15.2028C46.5962 14.7724 46.381 14.2343 46.381 13.6962C46.381 13.0506 46.5962 12.5125 47.1343 12.0821C47.6724 11.7592 48.4257 11.544 49.5018 11.544C51.3312 11.544 52.9454 12.4049 54.2367 14.2343L57.0346 12.6201C56.389 11.3288 55.3128 10.2526 53.9139 9.49936C52.5149 8.63846 51.0084 8.20801 49.5018 8.20801C47.3495 8.20801 45.6277 8.74607 44.2288 9.71458C42.8298 10.6831 42.0765 12.0821 42.0765 13.8038C42.0765 14.6647 42.1841 15.418 42.507 16.0637C42.8298 16.7094 43.2603 17.2474 43.9059 17.6779C44.5516 18.1083 45.0897 18.4312 45.6277 18.754C46.1658 18.9692 46.8115 19.2921 47.6724 19.5073C47.78 19.5073 47.8876 19.6149 48.1028 19.6149C49.1789 19.9378 50.0398 20.2606 50.5779 20.4758C51.116 20.691 51.654 21.0139 52.1921 21.4443C52.7301 21.8748 52.9454 22.3052 52.9454 22.9509C52.9454 23.5966 52.6225 24.2422 51.9769 24.5651C51.3312 24.9955 50.5779 25.2108 49.5018 25.2108C47.3495 25.2108 45.6277 24.2422 44.3364 22.3052L41.3232 24.027C42.0765 25.426 43.1527 26.6097 44.6592 27.363C46.1658 28.2239 47.78 28.5467 49.6094 28.5467C51.9769 28.5467 53.9139 28.0087 55.2052 26.9326C56.4966 25.8564 57.2499 24.4575 57.2499 22.9509C57.1423 20.3682 55.2052 18.4312 51.2236 17.1398Z" fill="white"/>
<path d="M64.9979 0.782715H60.801V27.901H64.9979V0.782715Z" fill="white"/>
</svg>
