<svg width="162" height="33" viewBox="0 0 162 33" fill="none" xmlns="http://www.w3.org/2000/svg">
<path d="M11.4262 22.9006C10.7606 23.5981 9.64232 23.5981 8.95007 22.9274L0.96252 15.0674C-0.288863 13.8602 -0.315488 11.8483 0.856019 10.5874L10.1748 0.554518C10.8405 -0.142958 11.9321 -0.19661 12.651 0.47404L14.7544 2.45916C15.4466 3.12982 15.4999 4.22968 14.8342 4.95398L8.23119 12.036C7.88506 12.3848 7.91169 12.9481 8.25781 13.2969L13.3965 18.3402C14.0887 19.0108 14.0887 20.1375 13.4231 20.835L11.4262 22.9006Z" fill="#DFDFDF"/>
<path d="M14.3818 32.0214L12.2784 30.0363C11.5861 29.3656 11.5329 28.2657 12.1985 27.5414L18.8016 20.4325C19.1477 20.0838 19.1211 19.5205 18.7749 19.1717L13.6363 14.1284C12.944 13.4578 12.944 12.3311 13.6097 11.6336L15.6332 9.56801C16.2988 8.87054 17.417 8.87054 18.1093 9.54119L26.0968 17.4012C27.3482 18.6084 27.3749 20.6203 26.2033 21.8812L16.8845 31.9141C16.1923 32.6652 15.074 32.692 14.3818 32.0214Z" fill="#DFDFDF"/>
<path d="M37.7055 26.6827C36.5339 26.1998 35.5222 25.5023 34.6702 24.5902C33.8182 23.6782 33.1792 22.6051 32.7532 21.3711L36.4008 19.7347C36.9333 20.9151 37.6788 21.8272 38.6373 22.5246C39.5958 23.1953 40.6342 23.544 41.7791 23.544C42.6844 23.544 43.4032 23.3294 43.9357 22.927C44.4682 22.5246 44.7611 21.9613 44.7611 21.2638C44.7611 20.2713 44.1221 19.547 42.8707 19.1177L38.664 17.696C35.2293 16.5693 33.5253 14.5305 33.5253 11.5796C33.5253 10.3188 33.8448 9.19211 34.4572 8.22638C35.0696 7.26064 35.9482 6.50951 37.0664 5.97299C38.1847 5.43647 39.4627 5.16821 40.9271 5.16821C42.8707 5.16821 44.5481 5.65108 46.0125 6.61682C47.4769 7.58255 48.5153 8.92385 49.101 10.6139L45.48 12.2503C45.0806 11.2577 44.4682 10.4529 43.6695 9.88959C42.8707 9.32624 41.9389 9.03116 40.9005 9.03116C39.9952 9.03116 39.2763 9.24577 38.7172 9.67498C38.1581 10.1042 37.8918 10.6675 37.8918 11.365C37.8918 12.3844 38.5308 13.1087 39.8355 13.5648L43.9357 14.9061C47.3704 16.0327 49.0744 18.0447 49.0744 20.9151C49.0744 22.1759 48.7549 23.2758 48.0893 24.2683C47.4503 25.2341 46.545 26.012 45.4001 26.5485C44.2552 27.0851 42.924 27.3801 41.433 27.3801C40.1283 27.407 38.877 27.1655 37.7055 26.6827Z" fill="#DFDFDF"/>
<path d="M51.9497 5.51685H56.263V9.86266H51.9497V5.51685ZM51.9497 11.2844H56.263V27.085H51.9497V11.2844Z" fill="#DFDFDF"/>
<path d="M62.5735 25.6902C61.5351 24.6708 61.0026 23.2222 61.0026 21.3712V15.0403H58.3667V11.2846H58.4998C60.1772 11.2846 61.0026 10.4798 61.0026 8.84346V7.68994H65.3159V11.2846H68.9901V15.0403H65.3159V21.0761C65.3159 22.6857 66.1945 23.4905 67.9784 23.4905C68.2446 23.4905 68.5908 23.4636 68.9901 23.41V27.112C68.3511 27.2193 67.6855 27.2461 66.9666 27.2461C65.0762 27.2461 63.6119 26.7364 62.5735 25.6902Z" fill="#DFDFDF"/>
<path d="M74.741 26.3071C73.5163 25.556 72.5578 24.5634 71.8921 23.3026C71.2265 22.0418 70.8804 20.6468 70.8804 19.1446C70.8804 17.5618 71.2265 16.1669 71.9188 14.9329C72.611 13.6989 73.5695 12.7331 74.741 12.0088C75.9392 11.2845 77.2704 10.9358 78.7614 10.9358C80.4388 10.9358 81.8233 11.2845 82.9948 11.982C84.1397 12.6795 85.0183 13.6184 85.6307 14.7719C86.2431 15.9523 86.536 17.2667 86.536 18.7153C86.536 19.0372 86.5093 19.3323 86.4827 19.6274C86.4561 19.9225 86.4028 20.1908 86.323 20.4054H75.3534C75.4599 21.3979 75.8593 22.1759 76.5249 22.7661C77.1905 23.3562 78.0692 23.6513 79.1075 23.6513C79.8797 23.6513 80.5187 23.4904 81.0778 23.1953C81.6103 22.9002 82.0363 22.471 82.3558 21.9345L85.7905 23.5708C85.3112 24.7244 84.4592 25.6633 83.2611 26.3608C82.0629 27.0582 80.6518 27.407 79.0277 27.407C77.4035 27.407 75.9658 27.0582 74.741 26.3071ZM76.6314 15.1206C76.0456 15.6035 75.6463 16.301 75.4333 17.2131H81.9564C81.8499 16.3815 81.5304 15.7108 80.9447 15.1743C80.3589 14.6646 79.64 14.3963 78.7614 14.3963C77.936 14.3963 77.2172 14.6378 76.6314 15.1206Z" fill="#DFDFDF"/>
<path d="M89.0654 11.2845H93.0858V12.9209C94.2041 11.5796 95.8016 10.9358 97.8784 10.9358C99.3694 10.9358 100.727 11.3114 101.925 12.0357C103.124 12.76 104.082 13.7525 104.801 15.0133C105.52 16.2473 105.866 17.6423 105.866 19.1982C105.866 20.7273 105.52 22.1222 104.828 23.3562C104.135 24.6171 103.177 25.6096 101.979 26.3339C100.78 27.0582 99.396 27.4338 97.8784 27.4338C96.9997 27.4338 96.1743 27.2997 95.4022 27.0314C94.6301 26.7631 93.9645 26.3876 93.4053 25.8511V32.8526H89.0921V11.2845H89.0654ZM100.275 22.31C101.047 21.5052 101.42 20.459 101.42 19.1714C101.42 17.9106 101.047 16.8912 100.275 16.0596C99.5025 15.228 98.544 14.8256 97.3459 14.8256C96.1743 14.8256 95.2158 15.228 94.497 16.0327C93.7515 16.8375 93.3787 17.8837 93.3787 19.1714C93.3787 20.459 93.7515 21.5052 94.497 22.31C95.2425 23.1148 96.1743 23.5172 97.3459 23.5172C98.5174 23.5172 99.5025 23.1148 100.275 22.31Z" fill="#DFDFDF"/>
<path d="M111.936 26.3607C110.658 25.6364 109.647 24.6707 108.901 23.4367C108.156 22.2027 107.756 20.7809 107.756 19.1982C107.756 17.5886 108.129 16.1669 108.901 14.9329C109.647 13.6989 110.685 12.7331 111.936 12.0088C113.214 11.2845 114.626 10.9358 116.17 10.9358C117.714 10.9358 119.125 11.2845 120.403 12.0088C121.655 12.7331 122.666 13.6989 123.439 14.9329C124.184 16.1669 124.583 17.5886 124.583 19.1982C124.583 20.7809 124.211 22.2027 123.439 23.4367C122.693 24.6707 121.681 25.6633 120.403 26.3607C119.152 27.085 117.741 27.4338 116.17 27.4338C114.626 27.407 113.214 27.0582 111.936 26.3607ZM119.019 22.31C119.738 21.5052 120.11 20.459 120.11 19.1714C120.11 17.9106 119.738 16.8912 119.019 16.0596C118.3 15.228 117.341 14.8256 116.17 14.8256C114.998 14.8256 114.04 15.228 113.321 16.0596C112.575 16.8912 112.203 17.9106 112.203 19.1714C112.203 20.4322 112.575 21.4784 113.321 22.31C114.067 23.1148 114.998 23.5172 116.17 23.5172C117.341 23.5172 118.3 23.1148 119.019 22.31Z" fill="#DFDFDF"/>
<path d="M127.086 5.51685H131.399V9.86266H127.086V5.51685ZM127.086 11.2844H131.399V27.085H127.086V11.2844Z" fill="#DFDFDF"/>
<path d="M134.568 11.2845H138.588V13.216C138.988 12.438 139.573 11.8747 140.346 11.4991C141.118 11.1236 141.996 10.9358 142.981 10.9358C144.18 10.9358 145.218 11.1772 146.097 11.6869C146.975 12.1966 147.667 12.8941 148.173 13.7793C148.679 14.6646 148.919 15.7108 148.919 16.918V27.0851H144.606V17.8301C144.606 16.918 144.339 16.1937 143.807 15.6572C143.274 15.1206 142.582 14.8256 141.73 14.8256C140.878 14.8256 140.186 15.0938 139.653 15.6572C139.121 16.1937 138.855 16.9448 138.855 17.8301V27.0851H134.541V11.2845H134.568Z" fill="#DFDFDF"/>
<path d="M154.909 25.6902C153.871 24.6708 153.339 23.2222 153.339 21.3712V15.0403H150.703V11.2846H150.836C152.513 11.2846 153.339 10.4798 153.339 8.84346V7.68994H157.652V11.2846H161.326V15.0403H157.652V21.0761C157.652 22.6857 158.53 23.4905 160.314 23.4905C160.581 23.4905 160.927 23.4636 161.326 23.41V27.112C160.687 27.2193 160.021 27.2461 159.303 27.2461C157.412 27.2461 155.948 26.7364 154.909 25.6902Z" fill="#DFDFDF"/>
</svg>
