<svg width="160" height="27" viewBox="0 0 160 27" fill="none" xmlns="http://www.w3.org/2000/svg">
<path d="M5.708 13.1707L5.92649 12.9512L12.8089 6.03659L13.1366 5.70732C14.3383 4.5 14.3383 2.52439 13.1366 1.42683L12.6996 0.987805C12.0442 0.329268 11.2795 0 10.5147 0C9.75004 0 8.98533 0.329268 8.32986 0.878049L8.11137 1.09756L1.11975 8.12195L0.901264 8.34146C-0.300421 9.54878 -0.300421 11.5244 0.901264 12.7317L1.11975 12.9512L1.44748 13.1707C2.10295 13.7195 2.86766 14.0488 3.63237 14.0488C4.28783 14.0488 5.16178 13.7195 5.708 13.1707ZM2.75841 10.2073L10.187 2.7439C10.2963 2.63415 10.4055 2.63415 10.5147 2.63415C10.624 2.63415 10.7332 2.63415 10.8425 2.7439L11.2795 3.18293C11.3887 3.29268 11.3887 3.40244 11.3887 3.5122C11.3887 3.62195 11.3887 3.73171 11.2795 3.84146L3.85085 11.3049C3.74161 11.4146 3.63237 11.4146 3.52312 11.4146C3.41388 11.4146 3.30463 11.4146 3.19539 11.3049L2.75841 10.8659C2.64917 10.7561 2.64917 10.5366 2.64917 10.5366C2.64917 10.4268 2.64917 10.3171 2.75841 10.2073Z" fill="white"/>
<path d="M22.6408 8.88993C23.8425 7.68262 23.8425 5.81676 22.6408 4.60945L22.4223 4.38993L22.313 4.28018L22.0946 4.06067C21.4391 3.51189 20.6744 3.18262 19.9097 3.18262C19.145 3.18262 18.3803 3.51189 17.7248 4.06067L17.5063 4.28018L3.30457 18.5485L3.08608 18.768C1.88439 19.9753 1.88439 21.9509 3.08608 23.1582L3.30457 23.3777L3.52305 23.5973C4.06928 24.146 4.94323 24.4753 5.70794 24.4753C6.47265 24.4753 7.23735 24.146 7.89282 23.5973L8.11131 23.3777L22.6408 8.88993ZM20.7836 7.02408L6.14491 21.7314C6.03567 21.9509 5.92642 21.9509 5.81718 21.9509C5.70794 21.9509 5.59869 21.9509 5.48945 21.7314L5.05247 21.2924C4.94323 21.1826 4.94323 21.0729 4.94323 20.9631C4.94323 20.8533 4.94323 20.7436 5.05247 20.6338L19.6912 5.92652C19.8004 5.81676 19.9097 5.81676 20.0189 5.81676C20.1282 5.81676 20.2374 5.81676 20.3466 5.92652L20.7836 6.36554C21.0021 6.58506 21.0021 6.91432 20.7836 7.02408Z" fill="white"/>
<path d="M21.6576 16.6827C21.1114 16.134 20.2374 15.8047 19.4727 15.8047C18.708 15.8047 17.9433 16.134 17.2879 16.6827L17.0694 16.9022L12.9181 21.073L12.6996 21.2925C11.4979 22.4998 11.4979 24.4754 12.6996 25.6827L13.1366 26.1218C13.6828 26.6705 14.5568 26.9998 15.3215 26.9998C16.0862 26.9998 16.8509 26.6705 17.5063 26.1218L17.7248 25.9022L21.8761 21.7315L22.0946 21.512C23.2963 20.3047 23.2963 18.3291 22.0946 17.1218L21.6576 16.6827ZM20.3467 19.7559L15.7584 24.3657C15.6492 24.4754 15.54 24.4754 15.4307 24.4754C15.3215 24.4754 15.2122 24.4754 15.103 24.3657L14.666 23.9266C14.4475 23.7071 14.4475 23.4876 14.666 23.2681L19.2542 18.6583C19.3635 18.5486 19.4727 18.5486 19.582 18.5486C19.6912 18.5486 19.8005 18.5486 19.9097 18.6583L20.3467 19.0974C20.4559 19.2071 20.4559 19.3169 20.4559 19.4266C20.4559 19.4266 20.4559 19.5364 20.3467 19.7559Z" fill="white"/>
<path d="M32.8004 20.8535C31.5987 20.8535 30.6155 20.5243 29.8508 19.9755C29.0861 19.317 28.5399 18.5487 28.2122 17.4511L31.0525 16.7926C31.1617 17.2316 31.271 17.5609 31.708 17.7804C32.1449 17.9999 32.3634 18.2194 32.8004 18.2194C33.0189 18.2194 33.3466 18.1096 33.6744 17.9999C34.0021 17.8901 34.2206 17.5609 34.3298 17.3413C34.4391 17.1218 34.4391 16.9023 34.4391 16.5731C34.4391 16.2438 34.4391 15.9145 34.4391 15.5852V5.37793H37.1702V15.5852C37.1702 16.0243 37.1702 16.4633 37.1702 16.9023C37.1702 17.2316 37.1702 17.5609 37.0609 17.8901C36.9517 18.2194 36.8424 18.5487 36.624 18.8779C36.187 19.6462 35.6408 20.195 34.9853 20.5243C34.3298 20.7438 33.5651 20.8535 32.8004 20.8535Z" fill="white"/>
<path d="M42.96 20.8536C42.1953 20.8536 41.4306 20.7438 40.8844 20.4145C40.3382 20.0853 39.9012 19.6462 39.5735 19.2072C39.2457 18.7682 39.1365 18.1096 39.1365 17.4511C39.1365 16.9023 39.2457 16.4633 39.355 16.0243C39.4642 15.5853 39.7919 15.1462 40.1197 14.817C40.4474 14.4877 40.9936 14.1584 41.5398 13.9389C41.9768 13.8292 42.4138 13.6096 43.0693 13.4999C43.6155 13.3901 44.2709 13.2804 45.0357 13.1706C45.8004 13.0609 46.5651 12.9511 47.439 12.8414L46.4558 13.3901C46.4558 12.7316 46.3466 12.1828 46.0189 11.8536C45.6911 11.5243 45.1449 11.4145 44.3802 11.4145C43.9432 11.4145 43.5062 11.5243 43.0693 11.7438C42.6323 11.9633 42.3046 12.2926 42.0861 12.8414L39.4642 12.0731C39.7919 11.0853 40.3382 10.317 41.1029 9.76818C41.8676 9.2194 42.96 8.89014 44.3802 8.89014C45.3634 8.89014 46.2373 8.99989 47.0021 9.32916C47.7668 9.65843 48.4222 10.2072 48.75 10.9755C48.9684 11.4145 49.0777 11.8536 49.1869 12.2926C49.1869 12.7316 49.2962 13.1706 49.2962 13.7194V20.7438H46.7836V18.4389L47.1113 18.8779C46.5651 19.6462 45.9096 20.195 45.3634 20.5243C44.7079 20.7438 43.9432 20.8536 42.96 20.8536ZM43.5062 18.6584C44.0525 18.6584 44.4894 18.5487 44.8172 18.3292C45.1449 18.1096 45.4726 17.8901 45.6911 17.6706C45.9096 17.4511 46.0189 17.2316 46.1281 17.1218C46.2373 16.7926 46.3466 16.4633 46.3466 16.0243C46.3466 15.5853 46.3466 15.256 46.3466 15.0365L47.2205 15.256C46.3466 15.3657 45.6911 15.4755 45.1449 15.5853C44.5987 15.695 44.1617 15.8048 43.834 15.8048C43.5062 15.9145 43.1785 15.9145 42.96 16.0243C42.6323 16.134 42.4138 16.2438 42.3046 16.3536C42.0861 16.4633 41.9768 16.5731 41.9768 16.7926C41.8676 16.9023 41.8676 17.1218 41.8676 17.3414C41.8676 17.5609 41.9768 17.7804 42.0861 17.9999C42.1953 18.2194 42.4138 18.3292 42.6323 18.4389C42.8508 18.5487 43.1785 18.6584 43.5062 18.6584Z" fill="white"/>
<path d="M56.397 20.8534C55.1953 20.8534 54.2121 20.6339 53.3382 20.0852C52.4642 19.5364 51.8087 18.8778 51.3718 17.89C50.9348 17.012 50.7163 15.9144 50.7163 14.8169C50.7163 13.6095 50.9348 12.6217 51.3718 11.7437C51.8087 10.8656 52.4642 10.0973 53.3382 9.54857C54.2121 8.99979 55.3046 8.78027 56.5062 8.78027C57.8172 8.78027 59.0189 9.10954 59.8928 9.76808C60.7668 10.4266 61.4222 11.4144 61.6407 12.512L58.8004 13.2803C58.5819 12.7315 58.3634 12.1827 57.9264 11.8534C57.4894 11.5242 57.0525 11.3047 56.5062 11.3047C55.8508 11.3047 55.4138 11.4144 54.9768 11.7437C54.5398 12.073 54.3214 12.4022 54.1029 12.951C53.8844 13.4998 53.7751 14.0486 53.7751 14.7071C53.7751 15.6949 53.9936 16.4632 54.4306 17.1217C54.8676 17.7803 55.523 17.9998 56.397 17.9998C57.0525 17.9998 57.4894 17.89 57.8172 17.5608C58.1449 17.2315 58.3634 16.7925 58.5819 16.2437L61.5315 16.9022C61.2037 18.1095 60.5483 19.0973 59.6743 19.7559C58.8004 20.4144 57.7079 20.8534 56.397 20.8534Z" fill="white"/>
<path d="M63.061 20.5247V5.26855H66.0106V14.5978L69.8342 9.11002H73.33L69.1787 14.8173L73.5485 20.5247H69.9434L66.0106 15.0368V20.5247H63.061Z" fill="white"/>
<path d="M84.145 20.8537C82.6156 20.8537 81.3047 20.5244 80.2122 19.8659C79.1198 19.2074 78.2459 18.3293 77.6996 17.122C77.1534 15.9147 76.8257 14.5976 76.8257 12.9513C76.8257 11.3049 77.1534 9.98785 77.6996 8.78054C78.2459 7.57322 79.1198 6.69517 80.2122 6.03663C81.3047 5.3781 82.6156 5.04883 84.145 5.04883C85.8929 5.04883 87.3131 5.48785 88.5148 6.3659C89.7165 7.24395 90.4812 8.45127 91.0274 9.8781L88.1871 10.6464C87.8593 9.76834 87.4224 9.00005 86.7669 8.45127C86.0022 8.01224 85.2375 7.68297 84.145 7.68297C83.1618 7.68297 82.3971 7.90249 81.7417 8.34151C81.0862 8.78054 80.6492 9.32932 80.3215 10.2074C79.9938 10.9757 79.7753 11.8537 79.7753 12.9513C79.7753 14.0488 79.8845 14.9269 80.2122 15.6952C80.54 16.4635 80.977 17.122 81.6324 17.561C82.2879 18 83.0526 18.2196 84.0358 18.2196C85.1282 18.2196 86.0022 18 86.6577 17.4513C87.3131 16.9025 87.7501 16.2439 88.0778 15.2561L90.9182 16.0244C90.4812 17.561 89.6072 18.6586 88.4056 19.5366C87.3131 20.4147 85.8929 20.8537 84.145 20.8537Z" fill="white"/>
<path d="M92.6663 20.5248V9.1102H95.1789V11.8541L94.8511 11.5248C94.9604 11.0858 95.1789 10.7565 95.3974 10.4273C95.6159 10.098 95.9436 9.87849 96.2713 9.65898C96.599 9.43947 96.8175 9.32971 97.1453 9.21995C97.473 9.1102 97.8007 9.1102 98.1285 9.00044C98.4562 8.89068 98.7839 9.00044 99.1117 9.00044V11.6346C98.7839 11.5248 98.4562 11.5248 98.0192 11.5248C97.5822 11.5248 97.2545 11.6346 96.9268 11.8541C96.599 11.9639 96.2713 12.1834 96.0528 12.5126C95.8343 12.7321 95.6158 13.0614 95.5066 13.3907C95.3974 13.72 95.2881 14.159 95.2881 14.598V20.4151H92.6663V20.5248Z" fill="white"/>
<path d="M105.885 20.8534C104.683 20.8534 103.7 20.6339 102.826 20.0852C101.952 19.5364 101.296 18.8778 100.75 17.9998C100.204 17.1217 99.9854 16.1339 99.9854 14.9266C99.9854 13.7193 100.204 12.6217 100.75 11.6339C101.187 10.7559 101.952 9.98759 102.826 9.43881C103.59 9.10954 104.574 8.78027 105.666 8.78027C106.868 8.78027 107.851 9.10954 108.725 9.65832C109.599 10.2071 110.145 10.9754 110.582 12.073C111.019 13.0608 111.128 14.2681 111.019 15.6949H108.179V14.5973C108.179 13.39 107.96 12.6217 107.632 12.073C107.305 11.5242 106.649 11.3047 105.775 11.3047C104.792 11.3047 104.027 11.6339 103.59 12.1827C103.153 12.7315 102.935 13.6095 102.935 14.8169C102.935 15.9144 103.153 16.6827 103.59 17.3412C104.027 17.9998 104.683 18.2193 105.666 18.2193C106.212 18.2193 106.758 18.1095 107.086 17.89C107.523 17.6705 107.742 17.3412 107.96 16.7925L110.801 17.6705C110.364 18.7681 109.708 19.5364 108.725 20.0852C107.742 20.6339 106.977 20.8534 105.885 20.8534ZM102.061 15.6949V13.6095H109.599V15.6949H102.061Z" fill="white"/>
<path d="M115.717 20.8534C114.952 20.8534 114.187 20.7437 113.641 20.4144C113.095 20.0852 112.658 19.6461 112.33 19.2071C112.002 18.7681 111.893 18.1095 111.893 17.451C111.893 16.9022 112.002 16.4632 112.112 16.0242C112.221 15.5852 112.549 15.1461 112.876 14.8169C113.204 14.4876 113.75 14.1583 114.296 13.9388C114.733 13.8291 115.17 13.6095 115.826 13.4998C116.372 13.39 117.028 13.2803 117.792 13.1705C118.557 13.0608 119.322 12.951 120.196 12.8412L119.212 13.39C119.212 12.7315 119.103 12.1827 118.775 11.8534C118.448 11.5242 117.901 11.4144 117.137 11.4144C116.7 11.4144 116.263 11.5242 115.826 11.7437C115.389 11.9632 115.061 12.2925 114.843 12.8412L112.221 11.9632C112.549 10.9754 113.095 10.2071 113.859 9.65832C114.624 9.10954 115.717 8.78027 117.137 8.78027C118.12 8.78027 118.994 8.89003 119.759 9.2193C120.523 9.54857 121.179 10.0973 121.507 10.8656C121.725 11.3047 121.834 11.7437 121.944 12.1827C121.944 12.6217 122.053 13.0608 122.053 13.6095V20.6339H119.54V18.3291L119.868 18.7681C119.322 19.5364 118.666 20.0852 118.12 20.4144C117.465 20.7437 116.7 20.8534 115.717 20.8534ZM116.263 18.6583C116.809 18.6583 117.246 18.5486 117.574 18.3291C117.901 18.1095 118.229 17.89 118.448 17.6705C118.666 17.451 118.775 17.2315 118.885 17.1217C118.994 16.7925 119.103 16.4632 119.103 16.0242C119.103 15.5852 119.103 15.2559 119.103 15.0364L119.977 15.2559C119.103 15.3656 118.448 15.4754 117.901 15.5852C117.355 15.6949 116.918 15.8047 116.591 15.8047C116.263 15.9144 115.935 15.9144 115.717 16.0242C115.389 16.1339 115.17 16.2437 115.061 16.3534C114.843 16.4632 114.733 16.573 114.733 16.7925C114.624 16.9022 114.624 17.1217 114.624 17.3412C114.624 17.5608 114.733 17.7803 114.843 17.9998C114.952 18.2193 115.17 18.3291 115.389 18.4388C115.717 18.5486 115.935 18.6583 116.263 18.6583Z" fill="white"/>
<path d="M122.927 11.4146V9.21944H131.011V11.4146H122.927ZM131.011 20.5243C130.246 20.6341 129.481 20.7438 128.717 20.7438C127.952 20.7438 127.297 20.6341 126.641 20.3048C126.095 20.0853 125.549 19.6463 125.33 19.0975C125.002 18.5487 124.893 17.9999 124.893 17.4511C124.893 16.9024 124.893 16.3536 124.893 15.5853V5.92676H127.734V15.4755C127.734 15.9146 127.734 16.3536 127.734 16.6829C127.734 17.0121 127.843 17.3414 127.952 17.5609C128.17 17.9999 128.607 18.2194 129.154 18.2194C129.7 18.2194 130.355 18.2194 131.011 18.1097V20.5243Z" fill="white"/>
<path d="M133.086 7.57322V5.04883H135.927V7.57322H133.086ZM133.086 20.5244V9.1098H135.927V20.5244H133.086Z" fill="white"/>
<path d="M141.608 20.5245L137.456 9.10986H140.297L143.028 17.0123L145.759 9.10986H148.599L144.448 20.5245H141.608Z" fill="white"/>
<path d="M154.717 20.8533C153.515 20.8533 152.532 20.6338 151.658 20.085C150.784 19.5363 150.129 18.8777 149.582 17.9997C149.036 17.1216 148.818 16.1338 148.818 14.9265C148.818 13.7192 149.036 12.6216 149.582 11.6338C150.019 10.7558 150.784 9.98748 151.658 9.4387C152.532 8.88992 153.515 8.67041 154.608 8.67041C155.809 8.67041 156.792 8.99968 157.666 9.54846C158.54 10.0972 159.087 10.8655 159.524 11.9631C159.961 12.9509 160.07 14.1582 159.961 15.585H157.12V14.4875C157.12 13.2802 156.902 12.5119 156.574 11.9631C156.246 11.4143 155.591 11.1948 154.717 11.1948C153.734 11.1948 152.969 11.5241 152.532 12.0728C152.095 12.6216 151.876 13.4997 151.876 14.707C151.876 15.8046 152.095 16.5728 152.532 17.2314C152.969 17.8899 153.624 18.1094 154.608 18.1094C155.154 18.1094 155.7 17.9997 156.028 17.7802C156.465 17.5607 156.683 17.2314 156.902 16.6826L159.742 17.5607C159.305 18.6582 158.65 19.4265 157.666 19.9753C156.683 20.5241 155.809 20.8533 154.717 20.8533ZM150.893 15.6948V13.6094H158.431V15.6948H150.893Z" fill="white"/>
</svg>
