<svg width="80" height="80" viewBox="0 0 80 80" fill="none" xmlns="http://www.w3.org/2000/svg">
<g filter="url(#filter0_ii)">
<rect width="80" height="80" rx="25.4634" fill="url(#paint0_linear)"/>
<rect width="80" height="80" rx="25.4634" fill="url(#paint1_linear)" fill-opacity="0.2" style="mix-blend-mode:soft-light"/>
</g>
<mask id="mask0" mask-type="alpha" maskUnits="userSpaceOnUse" x="19" y="18" width="42" height="47">
<path d="M56.3279 18.9758H23.6709C21.5899 18.9758 19.9028 20.6629 19.9028 22.7439V60.4251C19.9028 62.5062 21.5899 64.1932 23.6709 64.1932H56.3279C58.409 64.1932 60.0961 62.5062 60.0961 60.4251V22.7439C60.0961 20.6629 58.409 18.9758 56.3279 18.9758Z" fill="white"/>
</mask>
<g mask="url(#mask0)">
<g filter="url(#filter1_ii)">
<path d="M56.3279 18.9758H23.6709C21.5899 18.9758 19.9028 20.6629 19.9028 22.7439V60.4251C19.9028 62.5062 21.5899 64.1932 23.6709 64.1932H56.3279C58.409 64.1932 60.0961 62.5062 60.0961 60.4251V22.7439C60.0961 20.6629 58.409 18.9758 56.3279 18.9758Z" fill="url(#paint2_linear)"/>
<path d="M56.3279 18.9758H23.6709C21.5899 18.9758 19.9028 20.6629 19.9028 22.7439V60.4251C19.9028 62.5062 21.5899 64.1932 23.6709 64.1932H56.3279C58.409 64.1932 60.0961 62.5062 60.0961 60.4251V22.7439C60.0961 20.6629 58.409 18.9758 56.3279 18.9758Z" fill="url(#paint3_radial)" fill-opacity="0.8"/>
<path d="M56.3279 18.9758H23.6709C21.5899 18.9758 19.9028 20.6629 19.9028 22.7439V60.4251C19.9028 62.5062 21.5899 64.1932 23.6709 64.1932H56.3279C58.409 64.1932 60.0961 62.5062 60.0961 60.4251V22.7439C60.0961 20.6629 58.409 18.9758 56.3279 18.9758Z" fill="url(#paint4_radial)" fill-opacity="0.8"/>
<path d="M56.3279 18.9758H23.6709C21.5899 18.9758 19.9028 20.6629 19.9028 22.7439V60.4251C19.9028 62.5062 21.5899 64.1932 23.6709 64.1932H56.3279C58.409 64.1932 60.0961 62.5062 60.0961 60.4251V22.7439C60.0961 20.6629 58.409 18.9758 56.3279 18.9758Z" fill="url(#paint5_radial)" fill-opacity="0.8"/>
</g>
</g>
<g filter="url(#filter2_ddii)">
<path fill-rule="evenodd" clip-rule="evenodd" d="M43.7668 12.6956C45.3317 12.6956 46.6739 13.6496 47.2433 15.0077C47.293 15.1262 47.4065 15.2077 47.5349 15.2076C49.616 15.2076 51.303 16.8947 51.303 18.9758C51.303 21.0568 49.616 22.7439 47.5349 22.7439H32.4625C30.3814 22.7439 28.6943 21.0568 28.6943 18.9758C28.6943 16.8947 30.3814 15.2076 32.4625 15.2076C32.5909 15.2077 32.7044 15.1262 32.754 15.0077C33.3235 13.6496 34.6656 12.6956 36.2306 12.6956H43.7668Z" fill="#FF5C7A"/>
</g>
<g filter="url(#filter3_dii)">
<path fill-rule="evenodd" clip-rule="evenodd" d="M32.0057 40.4808C31.0246 39.4997 31.0246 37.9092 32.0057 36.9282C32.9867 35.9471 34.5773 35.9471 35.5583 36.9282L38.7508 40.1207C38.9497 40.3196 39.2721 40.3196 39.471 40.1207L44.4398 35.1519C45.4208 34.1708 47.0114 34.1708 47.9924 35.1519C48.9735 36.1329 48.9735 37.7234 47.9924 38.7045L40.8872 45.8097C39.9508 46.7461 38.459 46.7887 37.472 45.9374L37.3346 45.8097L32.0057 40.4808Z" fill="white"/>
</g>
<defs>
<filter id="filter0_ii" x="-0.914126" y="-0.914126" width="81.8283" height="81.8283" filterUnits="userSpaceOnUse" color-interpolation-filters="sRGB">
<feFlood flood-opacity="0" result="BackgroundImageFix"/>
<feBlend mode="normal" in="SourceGraphic" in2="BackgroundImageFix" result="shape"/>
<feColorMatrix in="SourceAlpha" type="matrix" values="0 0 0 0 0 0 0 0 0 0 0 0 0 0 0 0 0 0 127 0" result="hardAlpha"/>
<feOffset dx="0.914126" dy="0.914126"/>
<feGaussianBlur stdDeviation="0.457063"/>
<feComposite in2="hardAlpha" operator="arithmetic" k2="-1" k3="1"/>
<feColorMatrix type="matrix" values="0 0 0 0 1 0 0 0 0 1 0 0 0 0 1 0 0 0 0.2 0"/>
<feBlend mode="normal" in2="shape" result="effect1_innerShadow"/>
<feColorMatrix in="SourceAlpha" type="matrix" values="0 0 0 0 0 0 0 0 0 0 0 0 0 0 0 0 0 0 127 0" result="hardAlpha"/>
<feOffset dx="-0.914126" dy="-0.914126"/>
<feGaussianBlur stdDeviation="0.457063"/>
<feComposite in2="hardAlpha" operator="arithmetic" k2="-1" k3="1"/>
<feColorMatrix type="matrix" values="0 0 0 0 0 0 0 0 0 0 0 0 0 0 0 0 0 0 0.05 0"/>
<feBlend mode="normal" in2="effect1_innerShadow" result="effect2_innerShadow"/>
</filter>
<filter id="filter1_ii" x="14.0141" y="14.7387" width="46.0819" height="49.4545" filterUnits="userSpaceOnUse" color-interpolation-filters="sRGB">
<feFlood flood-opacity="0" result="BackgroundImageFix"/>
<feBlend mode="normal" in="SourceGraphic" in2="BackgroundImageFix" result="shape"/>
<feColorMatrix in="SourceAlpha" type="matrix" values="0 0 0 0 0 0 0 0 0 0 0 0 0 0 0 0 0 0 127 0" result="hardAlpha"/>
<feOffset dx="-5.88871"/>
<feGaussianBlur stdDeviation="5.88871"/>
<feComposite in2="hardAlpha" operator="arithmetic" k2="-1" k3="1"/>
<feColorMatrix type="matrix" values="0 0 0 0 0.80575 0 0 0 0 0.7375 0 0 0 0 1 0 0 0 0.3 0"/>
<feBlend mode="normal" in2="shape" result="effect1_innerShadow"/>
<feColorMatrix in="SourceAlpha" type="matrix" values="0 0 0 0 0 0 0 0 0 0 0 0 0 0 0 0 0 0 127 0" result="hardAlpha"/>
<feOffset dy="-4.23711"/>
<feGaussianBlur stdDeviation="2.82474"/>
<feComposite in2="hardAlpha" operator="arithmetic" k2="-1" k3="1"/>
<feColorMatrix type="matrix" values="0 0 0 0 0.1755 0 0 0 0 0 0 0 0 0 0.675 0 0 0 0.65 0"/>
<feBlend mode="normal" in2="effect1_innerShadow" result="effect2_innerShadow"/>
</filter>
<filter id="filter2_ddii" x="23.3979" y="9.51772" width="33.2015" height="20.6411" filterUnits="userSpaceOnUse" color-interpolation-filters="sRGB">
<feFlood flood-opacity="0" result="BackgroundImageFix"/>
<feColorMatrix in="SourceAlpha" type="matrix" values="0 0 0 0 0 0 0 0 0 0 0 0 0 0 0 0 0 0 127 0"/>
<feOffset dy="2.11855"/>
<feGaussianBlur stdDeviation="2.64819"/>
<feColorMatrix type="matrix" values="0 0 0 0 0.295167 0 0 0 0 0 0 0 0 0 0.670833 0 0 0 0.75 0"/>
<feBlend mode="normal" in2="BackgroundImageFix" result="effect1_dropShadow"/>
<feColorMatrix in="SourceAlpha" type="matrix" values="0 0 0 0 0 0 0 0 0 0 0 0 0 0 0 0 0 0 127 0"/>
<feOffset dy="0.529639"/>
<feGaussianBlur stdDeviation="0.353092"/>
<feColorMatrix type="matrix" values="0 0 0 0 0.237156 0 0 0 0 0.00444442 0 0 0 0 0.533333 0 0 0 0.25 0"/>
<feBlend mode="normal" in2="effect1_dropShadow" result="effect2_dropShadow"/>
<feBlend mode="normal" in="SourceGraphic" in2="effect2_dropShadow" result="shape"/>
<feColorMatrix in="SourceAlpha" type="matrix" values="0 0 0 0 0 0 0 0 0 0 0 0 0 0 0 0 0 0 127 0" result="hardAlpha"/>
<feOffset dy="-2.11855"/>
<feGaussianBlur stdDeviation="2.11855"/>
<feComposite in2="hardAlpha" operator="arithmetic" k2="-1" k3="1"/>
<feColorMatrix type="matrix" values="0 0 0 0 0.525 0 0 0 0 0 0 0 0 0 0.0629999 0 0 0 0.65 0"/>
<feBlend mode="normal" in2="shape" result="effect3_innerShadow"/>
<feColorMatrix in="SourceAlpha" type="matrix" values="0 0 0 0 0 0 0 0 0 0 0 0 0 0 0 0 0 0 127 0" result="hardAlpha"/>
<feOffset dy="-1.05928"/>
<feGaussianBlur stdDeviation="1.05928"/>
<feComposite in2="hardAlpha" operator="arithmetic" k2="-1" k3="1"/>
<feColorMatrix type="matrix" values="0 0 0 0 0.553333 0 0 0 0 0.441667 0 0 0 0 1 0 0 0 0.65 0"/>
<feBlend mode="normal" in2="effect3_innerShadow" result="effect4_innerShadow"/>
</filter>
<filter id="filter3_dii" x="20.6772" y="30.8851" width="38.6438" height="33.3149" filterUnits="userSpaceOnUse" color-interpolation-filters="sRGB">
<feFlood flood-opacity="0" result="BackgroundImageFix"/>
<feColorMatrix in="SourceAlpha" type="matrix" values="0 0 0 0 0 0 0 0 0 0 0 0 0 0 0 0 0 0 127 0"/>
<feOffset dy="7.06185"/>
<feGaussianBlur stdDeviation="5.29639"/>
<feColorMatrix type="matrix" values="0 0 0 0 0.227561 0 0 0 0 0.00928819 0 0 0 0 0.445833 0 0 0 0.7 0"/>
<feBlend mode="normal" in2="BackgroundImageFix" result="effect1_dropShadow"/>
<feBlend mode="normal" in="SourceGraphic" in2="effect1_dropShadow" result="shape"/>
<feColorMatrix in="SourceAlpha" type="matrix" values="0 0 0 0 0 0 0 0 0 0 0 0 0 0 0 0 0 0 127 0" result="hardAlpha"/>
<feOffset dy="-2.82474"/>
<feGaussianBlur stdDeviation="1.76546"/>
<feComposite in2="hardAlpha" operator="arithmetic" k2="-1" k3="1"/>
<feColorMatrix type="matrix" values="0 0 0 0 0.32 0 0 0 0 0 0 0 0 0 1 0 0 0 0.5 0"/>
<feBlend mode="normal" in2="shape" result="effect2_innerShadow"/>
<feColorMatrix in="SourceAlpha" type="matrix" values="0 0 0 0 0 0 0 0 0 0 0 0 0 0 0 0 0 0 127 0" result="hardAlpha"/>
<feOffset dy="-1.42604"/>
<feGaussianBlur stdDeviation="0.950691"/>
<feComposite in2="hardAlpha" operator="arithmetic" k2="-1" k3="1"/>
<feColorMatrix type="matrix" values="0 0 0 0 0.975833 0 0 0 0 0.879167 0 0 0 0 1 0 0 0 0.75 0"/>
<feBlend mode="normal" in2="effect2_innerShadow" result="effect3_innerShadow"/>
</filter>
<linearGradient id="paint0_linear" x1="40" y1="0" x2="40" y2="80" gradientUnits="userSpaceOnUse">
<stop stop-color="#E2BDFF"/>
<stop offset="1" stop-color="#DBB0FD"/>
</linearGradient>
<linearGradient id="paint1_linear" x1="40" y1="0" x2="40" y2="80" gradientUnits="userSpaceOnUse">
<stop offset="0.328125" stop-color="white"/>
<stop offset="1" stop-opacity="0.1"/>
</linearGradient>
<linearGradient id="paint2_linear" x1="60.0961" y1="14.2247" x2="16.982" y2="63.1723" gradientUnits="userSpaceOnUse">
<stop stop-color="#7041EE"/>
<stop offset="0.527788" stop-color="#8D41EE"/>
<stop offset="1" stop-color="#D641EE"/>
</linearGradient>
<radialGradient id="paint3_radial" cx="0" cy="0" r="1" gradientUnits="userSpaceOnUse" gradientTransform="translate(30.8027 9.14596) rotate(95.4785) scale(55.2999 82.1361)">
<stop stop-color="#52B6FF"/>
<stop offset="1" stop-color="#8F41EE" stop-opacity="0"/>
</radialGradient>
<radialGradient id="paint4_radial" cx="0" cy="0" r="1" gradientUnits="userSpaceOnUse" gradientTransform="translate(30.6324 21.5971) rotate(64.8899) scale(22.0735 59.0107)">
<stop stop-color="#9DD6FF"/>
<stop offset="1" stop-color="#8F41EE" stop-opacity="0"/>
</radialGradient>
<radialGradient id="paint5_radial" cx="0" cy="0" r="1" gradientUnits="userSpaceOnUse" gradientTransform="translate(79.1708 53.5442) rotate(141.077) scale(35.4636 50.3282)">
<stop stop-color="#5263FF"/>
<stop offset="1" stop-color="#8F41EE" stop-opacity="0"/>
</radialGradient>
</defs>
</svg>
