<svg width="60" height="61" viewBox="0 0 60 61" fill="none" xmlns="http://www.w3.org/2000/svg">
<rect opacity="0.2" x="0.5" y="1.37402" width="59" height="59" rx="19.5" stroke="#404152"/>
<path fill-rule="evenodd" clip-rule="evenodd" d="M28.5774 30.6798L36.4164 24.7548V24.7515L36.4167 24.7547V36.6048L36.4164 36.608V36.6048L28.5774 30.6798ZM20.872 30.6798L17.0994 34.1289C16.5068 34.6754 16.5404 35.6214 17.1698 36.125C17.1698 36.125 18.0414 36.9361 18.3568 37.1613C18.8413 37.5069 19.4779 37.5464 19.9579 37.1948L24.3593 33.8681L34.9187 43.522C35.1873 43.8262 35.576 43.8763 35.8901 43.7458L35.89 43.7478L41.6966 41.0223C42.48 40.7458 43.0001 40.0019 43.0001 39.1658V22.1937C43.0001 21.3576 42.48 20.6137 41.6966 20.3372L35.89 17.6117L35.8901 17.6139C35.576 17.4834 35.1873 17.5334 34.9187 17.8376L24.3593 27.4916L19.9579 24.1648C19.4779 23.8132 18.8413 23.8527 18.3568 24.1984C18.0414 24.4235 17.1698 25.2346 17.1698 25.2346C16.5404 25.7382 16.5068 26.6843 17.0994 27.2307L20.872 30.6798Z" fill="#404152"/>
</svg>
