<svg width="140" height="30" viewBox="0 0 140 30" fill="none" xmlns="http://www.w3.org/2000/svg">
<path d="M40.114 16.1297C40.831 15.4832 41.3155 14.5234 41.5868 13.2305C41.6643 12.7799 41.7225 12.2902 41.7225 11.7809C41.7225 11.2128 41.6062 10.6056 41.3737 9.99829C41.083 9.23432 40.6954 8.82295 40.2303 8.725C39.5327 8.58788 38.8544 8.97966 38.2149 9.93953C37.6917 10.6839 37.3622 11.4675 37.1878 12.2706C37.0909 12.7212 37.0522 13.2109 37.0522 13.7006C37.0522 14.2687 37.1684 14.876 37.401 15.4832C37.6917 16.2472 38.0793 16.6586 38.5443 16.7565C39.0288 16.8545 39.552 16.639 40.114 16.1297Z" fill="#AAAAB7"/>
<path d="M29.4366 13.2305C29.1653 14.5234 28.6809 15.4832 27.9638 16.1297C27.4019 16.639 26.8786 16.8545 26.3942 16.7565C25.9291 16.6586 25.5415 16.2472 25.2508 15.4832C25.0183 14.876 24.902 14.2687 24.902 13.7006C24.902 13.2109 24.9408 12.7212 25.0376 12.2706C25.2121 11.4675 25.5415 10.6839 26.0647 9.93953C26.7042 8.97966 27.3825 8.58788 28.0801 8.725C28.5452 8.82295 28.9328 9.23432 29.2235 9.99829C29.456 10.6056 29.5723 11.2128 29.5723 11.7809C29.5723 12.2902 29.5335 12.7799 29.4366 13.2305Z" fill="#AAAAB7"/>
<path fill-rule="evenodd" clip-rule="evenodd" d="M4.39914 0.67395H42.9824C45.4242 0.67395 47.4008 2.67204 47.4008 5.14026V20.028C47.4008 22.4962 45.4242 24.4943 42.9824 24.4943H29.1459L31.0451 29.1957L22.6928 24.4943H4.41852C1.97678 24.4943 0.000141284 22.4962 0.000141284 20.028V5.14026C-0.0192376 2.69163 1.9574 0.67395 4.39914 0.67395ZM2.36439 4.72879C2.63569 4.3566 3.04265 4.16071 3.58525 4.12153C4.57358 4.04317 5.13556 4.51331 5.27121 5.53195C5.87196 9.62607 6.53084 13.0933 7.22848 15.9338L11.4724 7.76511C11.86 7.02072 12.3445 6.62894 12.9259 6.58976C13.7785 6.53099 14.3018 7.07949 14.5149 8.23524C14.9994 10.8406 15.6195 13.0542 16.3559 14.9347C16.8598 9.95909 17.7124 6.37428 18.9139 4.16071C19.2046 3.61222 19.6309 3.33797 20.1929 3.29879C20.6386 3.25961 21.0456 3.39674 21.4138 3.69057C21.782 3.98441 21.9758 4.3566 22.0145 4.80715C22.0339 5.15975 21.9758 5.45359 21.8208 5.74743C21.065 7.15785 20.4449 9.52813 19.941 12.8191C19.4565 16.0121 19.2821 18.4999 19.3984 20.2825C19.4372 20.7723 19.3596 21.2032 19.1658 21.5754C18.9333 22.0064 18.5845 22.2415 18.1388 22.2806C17.6349 22.3198 17.1117 22.0847 16.6078 21.5558C14.8056 19.6949 13.3716 16.9132 12.3251 13.2109C11.0655 15.7183 10.1353 17.5988 9.53456 18.8525C8.39121 21.0661 7.42227 22.2023 6.60836 22.261C6.08513 22.3002 5.63941 21.8497 5.25184 20.9094C4.26352 18.3432 3.19768 13.3872 2.05433 6.04127C1.99619 5.53195 2.09308 5.0814 2.36439 4.72879ZM44.0286 7.80432C43.3309 6.5702 42.3038 5.82582 40.9279 5.53198C40.5597 5.45362 40.2109 5.41444 39.8815 5.41444C38.0211 5.41444 36.5096 6.3939 35.3275 8.35281C34.3198 10.0179 33.8159 11.8593 33.8159 13.8769C33.8159 15.3853 34.126 16.6782 34.7461 17.7556C35.4437 18.9897 36.4708 19.7341 37.8467 20.0279C38.2149 20.1063 38.5637 20.1455 38.8932 20.1455C40.7729 20.1455 42.2845 19.166 43.4472 17.2071C44.4549 15.5224 44.9587 13.681 44.9587 11.6634C44.9587 10.1354 44.6487 8.86213 44.0286 7.80432ZM28.7778 5.53198C30.1343 5.82582 31.1807 6.5702 31.8784 7.80432C32.4985 8.86213 32.8086 10.1354 32.8086 11.6634C32.8086 13.681 32.3047 15.5224 31.297 17.2071C30.1343 19.166 28.6227 20.1455 26.743 20.1455C26.4135 20.1455 26.0647 20.1063 25.6965 20.0279C24.3206 19.7341 23.2936 18.9897 22.5959 17.7556C21.9758 16.6782 21.6657 15.3853 21.6657 13.8769C21.6657 11.8593 22.1696 10.0179 23.1773 8.35281C24.3594 6.3939 25.8709 5.41444 27.7313 5.41444C28.0607 5.41444 28.4096 5.45362 28.7778 5.53198Z" fill="#AAAAB7"/>
<path d="M50.3658 12.5647C50.3658 10.5666 51.0053 8.92116 52.3036 7.62827C53.602 6.33539 55.2299 5.68895 57.2065 5.70854C57.9623 5.70854 58.6793 5.7869 59.3188 5.9632V9.13663C58.6212 8.94074 57.9817 8.8428 57.3809 8.8428C56.4507 8.8428 55.6949 9.1954 55.0748 9.9202C54.4741 10.6254 54.164 11.5461 54.164 12.6627C54.164 13.8576 54.4741 14.7979 55.0942 15.5031C55.7143 16.1887 56.5282 16.5413 57.5553 16.5413C58.0592 16.5413 58.6405 16.4434 59.3188 16.2475V19.4209C58.5824 19.6364 57.9041 19.7343 57.3034 19.7343C55.2299 19.7343 53.5633 19.0683 52.2843 17.7558C51.0053 16.4434 50.3658 14.6999 50.3658 12.5647Z" fill="#AAAAB7"/>
<path fill-rule="evenodd" clip-rule="evenodd" d="M61.5667 7.49115C62.5744 6.29621 63.9697 5.68895 65.7526 5.68895C67.6517 5.68895 69.1051 6.29621 70.1322 7.49115C71.1399 8.70567 71.6437 10.4295 71.6437 12.6627C71.6437 14.8958 71.1399 16.6393 70.1516 17.8734C69.1632 19.1075 67.7486 19.7343 65.9076 19.7343C64.0085 19.7343 62.5551 19.1075 61.5667 17.8734C60.5784 16.6393 60.0746 14.8567 60.0746 12.5256C60.0746 10.3708 60.559 8.68608 61.5667 7.49115ZM65.7526 16.698C66.4114 16.698 66.9347 16.4238 67.2835 15.8753C67.6323 15.3268 67.8261 14.2298 67.8455 12.6235C67.8455 10.0181 67.1478 8.72526 65.7913 8.72526C64.4929 8.72526 63.8534 9.99855 63.8534 12.5647C63.8534 14.2298 64.0085 15.3268 64.3379 15.8753C64.6674 16.4238 65.1324 16.698 65.7526 16.698Z" fill="#AAAAB7"/>
<path d="M80.5192 9.05828L81.2169 6.06115H85.8291L87.6119 19.4013H84.085L83.1354 10.2336L80.9262 19.4013H78.5232L76.2171 10.214L75.3063 19.4013H71.9344L73.6204 6.06115H78.1163C78.7558 8.94075 79.2596 11.409 79.6278 13.4854L80.0154 11.409C80.1704 10.6058 80.3448 9.82225 80.5192 9.05828Z" fill="#AAAAB7"/>
<path d="M96.6618 9.05828L97.3595 6.06115H101.952L103.735 19.4013H100.208L99.2586 10.2336L97.0688 19.4013H94.6658L92.3597 10.214L91.4489 19.4013H88.077L89.763 6.06115H94.2589C94.8984 8.94075 95.4022 11.409 95.7704 13.4854L96.158 11.409C96.313 10.6058 96.4874 9.82225 96.6618 9.05828Z" fill="#AAAAB7"/>
<path d="M111.487 14.1319H108.328V16.5805H111.991V19.4209H104.762V6.08073H111.971V8.92115H108.328V11.3698H111.487V14.1319Z" fill="#AAAAB7"/>
<path fill-rule="evenodd" clip-rule="evenodd" d="M122.591 10.1357C122.591 10.7821 122.397 11.409 122.029 12.0162C121.661 12.6235 121.118 13.074 120.44 13.3875L123.288 19.4013H119.529L116.641 13.3287H116.583V19.4013H113.018V6.06115H117.165C118.831 6.06115 120.168 6.43333 121.137 7.15813C122.106 7.88293 122.591 8.88198 122.591 10.1357ZM116.564 8.62732V11.8008C118.134 11.7812 118.928 11.311 118.928 10.3903C118.928 9.76348 118.754 9.33253 118.386 9.05828C118.017 8.78403 117.417 8.6469 116.564 8.62732Z" fill="#AAAAB7"/>
<path d="M122.746 12.5647C122.746 10.5666 123.385 8.92116 124.684 7.62827C125.982 6.33539 127.629 5.68895 129.586 5.70854C130.342 5.70854 131.059 5.7869 131.699 5.9632V9.13663C131.001 8.94074 130.362 8.8428 129.761 8.8428C128.831 8.8428 128.075 9.1954 127.455 9.9202C126.854 10.6254 126.544 11.5461 126.544 12.6627C126.544 13.8576 126.854 14.7979 127.474 15.5031C128.094 16.1887 128.908 16.5413 129.935 16.5413C130.439 16.5413 131.021 16.4434 131.699 16.2475V19.4209C130.962 19.6364 130.284 19.7343 129.683 19.7343C127.61 19.7343 125.943 19.0683 124.664 17.7558C123.385 16.4434 122.746 14.6999 122.746 12.5647Z" fill="#AAAAB7"/>
<path d="M136.253 14.1123V16.5609H139.935V19.4013H132.706V6.06115H139.915V8.90157H136.253V11.3502H139.412V14.1123H136.253Z" fill="#AAAAB7"/>
</svg>
