<svg width="60" height="61" viewBox="0 0 60 61" fill="none" xmlns="http://www.w3.org/2000/svg">
<rect opacity="0.2" x="0.5" y="1.37402" width="59" height="59" rx="19.5" stroke="#404152"/>
<path d="M37.7241 25.8879C37.7241 25.8879 35.131 34.703 34.9214 35.4307C34.8441 34.6911 32.9352 18.874 32.9352 18.874C28.5103 18.874 26.1379 22.2856 24.9021 25.8641C24.9021 25.8641 21.7462 34.6911 21.4814 35.4426C21.4593 34.7627 20.9959 25.9714 20.9959 25.9714C20.7421 21.5937 17.0124 18.9098 14 18.9098L17.6524 42.8621C22.2759 42.8382 24.7807 39.4506 26.0938 35.872C26.0938 35.872 28.8855 28.0947 28.9848 27.7249C29.0069 28.0589 30.971 42.874 30.971 42.874C35.6166 42.874 38.1103 39.6891 39.4676 36.2299L46 18.9098C41.3986 18.8979 38.9821 22.2975 37.7241 25.8879Z" fill="#404152"/>
</svg>
