<svg width="60" height="61" viewBox="0 0 60 61" fill="none" xmlns="http://www.w3.org/2000/svg">
<rect opacity="0.2" x="0.5" y="1.37402" width="59" height="59" rx="19.5" stroke="#404152"/>
<g clip-path="url(#clip0)">
<path fill-rule="evenodd" clip-rule="evenodd" d="M19.9966 20.5689C20.9867 21.3733 21.3582 21.312 23.2176 21.1879L40.7468 20.1353C41.1186 20.1353 40.8095 19.7644 40.6855 19.7028L37.7743 17.5982C37.2164 17.1651 36.4733 16.6692 35.0489 16.7932L18.0753 18.0312C17.4562 18.0926 17.3326 18.4021 17.5791 18.6502L19.9966 20.5689ZM21.049 24.6541V43.0979C21.049 44.0891 21.5443 44.46 22.6592 44.3986L41.9238 43.2839C43.0393 43.2226 43.1635 42.5408 43.1635 41.7356V23.4155C43.1635 22.6116 42.8543 22.1781 42.1715 22.2399L22.0397 23.4155C21.2967 23.4779 21.0489 23.8496 21.0489 24.6541H21.049ZM40.067 25.6434C40.1905 26.201 40.067 26.7581 39.5083 26.8208L38.5802 27.0057V40.6222C37.7743 41.0553 37.0311 41.3029 36.4118 41.3029C35.4203 41.3029 35.172 40.9932 34.4293 40.0654L28.3578 30.5338V39.7559L30.2791 40.1894C30.2791 40.1894 30.2791 41.3029 28.729 41.3029L24.4558 41.5508C24.3316 41.3029 24.4558 40.6845 24.8892 40.5606L26.0044 40.2516V28.0582L24.4561 27.9342C24.3319 27.3766 24.6412 26.5726 25.509 26.5102L30.0932 26.2012L36.4118 35.8569V27.3152L34.8008 27.1303C34.6772 26.4486 35.172 25.9537 35.7915 25.8923L40.067 25.6434ZM16.6501 16.3602L34.3054 15.06C36.4735 14.8741 37.0313 14.9986 38.394 15.9885L44.0298 19.9496C44.9597 20.6308 45.2697 20.8162 45.2697 21.5588V43.2839C45.2697 44.6455 44.7737 45.4507 43.0396 45.5739L22.5365 46.812C21.2347 46.8741 20.6152 46.6886 19.9335 45.8215L15.7832 40.4368C15.0396 39.4455 14.7303 38.704 14.7303 37.8365V18.5257C14.7303 17.4123 15.2265 16.4835 16.6501 16.3602Z" fill="#404152"/>
</g>
<defs>
<clipPath id="clip0">
<rect width="32" height="32" fill="white" transform="translate(14 14.874)"/>
</clipPath>
</defs>
</svg>
