<svg width="60" height="60" viewBox="0 0 60 60" fill="none" xmlns="http://www.w3.org/2000/svg">
<rect opacity="0.2" x="0.5" y="0.5" width="59" height="59" rx="19.5" stroke="white"/>
<g clip-path="url(#clip0)">
<path fill-rule="evenodd" clip-rule="evenodd" d="M34.0489 44.9261C34.4415 44.9257 34.8302 44.848 35.1928 44.6974C35.5554 44.5468 35.8848 44.3263 36.1621 44.0484C36.4395 43.7704 36.6594 43.4406 36.8092 43.0777C36.9591 42.7148 37.036 42.326 37.0356 41.9333C37.0359 41.5408 36.959 41.1519 36.8091 40.7891C36.6592 40.4263 36.4393 40.0965 36.1619 39.8187C35.8846 39.5408 35.5552 39.3203 35.1927 39.1697C34.8301 39.0192 34.4415 38.9415 34.0489 38.9411H31.0622V41.9333C31.0618 42.326 31.1387 42.7148 31.2886 43.0777C31.4384 43.4406 31.6583 43.7704 31.9357 44.0484C32.213 44.3263 32.5424 44.5468 32.905 44.6974C33.2676 44.848 33.6563 44.9257 34.0489 44.9261ZM34.0489 36.9456H42.0133C42.4059 36.9452 42.7946 36.8675 43.1571 36.7169C43.5197 36.5664 43.849 36.3459 44.1264 36.068C44.4037 35.7901 44.6236 35.4604 44.7735 35.0976C44.9234 34.7347 45.0004 34.3459 45 33.9533C45.0004 33.5607 44.9235 33.1718 44.7737 32.8089C44.6238 32.446 44.4039 32.1162 44.1266 31.8383C43.8492 31.5604 43.5199 31.3398 43.1573 31.1892C42.7947 31.0386 42.406 30.9609 42.0133 30.9606H34.0489C33.6563 30.9609 33.2676 31.0386 32.905 31.1892C32.5424 31.3398 32.213 31.5604 31.9357 31.8383C31.6583 32.1162 31.4384 32.446 31.2886 32.8089C31.1387 33.1718 31.0618 33.5607 31.0622 33.9533C31.0619 34.3459 31.1388 34.7347 31.2887 35.0976C31.4386 35.4604 31.6585 35.7901 31.9358 36.068C32.2132 36.3459 32.5425 36.5664 32.9051 36.7169C33.2676 36.8675 33.6563 36.9452 34.0489 36.9456Z" fill="white"/>
<path fill-rule="evenodd" clip-rule="evenodd" d="M15.1335 33.9533C15.1331 34.3459 15.2101 34.7347 15.36 35.0976C15.5099 35.4604 15.7298 35.7901 16.0071 36.068C16.2845 36.3459 16.6138 36.5664 16.9764 36.7169C17.3389 36.8675 17.7276 36.9452 18.1202 36.9456C18.5128 36.9452 18.9014 36.8675 19.264 36.7169C19.6265 36.5664 19.9559 36.3459 20.2332 36.068C20.5106 35.7901 20.7305 35.4604 20.8803 35.0976C21.0302 34.7347 21.1072 34.3459 21.1068 33.9533V30.9606H18.1202C17.7276 30.9609 17.3388 31.0386 16.9762 31.1892C16.6137 31.3398 16.2843 31.5604 16.0069 31.8383C15.7296 32.1162 15.5097 32.446 15.3598 32.8089C15.21 33.1718 15.1331 33.5607 15.1335 33.9533ZM23.098 33.9533V41.9333C23.0975 42.326 23.1744 42.7148 23.3243 43.0777C23.4742 43.4406 23.694 43.7704 23.9714 44.0484C24.2487 44.3263 24.5781 44.5468 24.9407 44.6974C25.3033 44.848 25.692 44.9257 26.0846 44.9261C26.4772 44.9257 26.866 44.848 27.2285 44.6974C27.5911 44.5468 27.9205 44.3263 28.1979 44.0484C28.4752 43.7704 28.6951 43.4406 28.845 43.0777C28.9948 42.7148 29.0717 42.326 29.0713 41.9333V33.9533C29.0717 33.5607 28.9948 33.1718 28.845 32.8089C28.6951 32.446 28.4752 32.1162 28.1979 31.8383C27.9205 31.5604 27.5911 31.3398 27.2285 31.1892C26.866 31.0386 26.4772 30.9609 26.0846 30.9606C25.692 30.9609 25.3033 31.0386 24.9407 31.1892C24.5781 31.3398 24.2487 31.5604 23.9714 31.8383C23.694 32.1162 23.4742 32.446 23.3243 32.8089C23.1744 33.1718 23.0975 33.5607 23.098 33.9533Z" fill="white"/>
<path fill-rule="evenodd" clip-rule="evenodd" d="M26.0846 15C25.692 15.0004 25.3033 15.0781 24.9407 15.2287C24.5781 15.3793 24.2487 15.5998 23.9714 15.8777C23.694 16.1557 23.4742 16.4855 23.3243 16.8484C23.1744 17.2113 23.0975 17.6001 23.098 17.9928C23.0976 18.3854 23.1746 18.7742 23.3244 19.137C23.4743 19.4998 23.6942 19.8296 23.9716 20.1074C24.2489 20.3853 24.5783 20.6058 24.9408 20.7564C25.3034 20.9069 25.692 20.9846 26.0846 20.985H29.0713V17.9928C29.0717 17.6001 28.9948 17.2113 28.845 16.8484C28.6951 16.4855 28.4752 16.1557 28.1979 15.8777C27.9205 15.5998 27.5911 15.3793 27.2285 15.2287C26.866 15.0781 26.4772 15.0004 26.0846 15ZM26.0846 22.9806H18.1202C17.7276 22.9809 17.3389 23.0586 16.9764 23.2092C16.6138 23.3597 16.2845 23.5803 16.0071 23.8581C15.7298 24.136 15.5099 24.4657 15.36 24.8286C15.2101 25.1914 15.1331 25.5802 15.1335 25.9728C15.1331 26.3654 15.21 26.7543 15.3598 27.1172C15.5097 27.4801 15.7296 27.8099 16.0069 28.0878C16.2843 28.3657 16.6137 28.5863 16.9762 28.7369C17.3388 28.8875 17.7276 28.9652 18.1202 28.9656H26.0846C26.4772 28.9652 26.866 28.8875 27.2285 28.7369C27.5911 28.5863 27.9205 28.3657 28.1979 28.0878C28.4752 27.8099 28.6951 27.4801 28.845 27.1172C28.9948 26.7543 29.0717 26.3654 29.0713 25.9728C29.0717 25.5802 28.9947 25.1914 28.8448 24.8286C28.6949 24.4657 28.475 24.136 28.1977 23.8581C27.9203 23.5803 27.591 23.3597 27.2284 23.2092C26.8659 23.0586 26.4772 22.9809 26.0846 22.9806Z" fill="white"/>
<path fill-rule="evenodd" clip-rule="evenodd" d="M45 25.9728C45.0004 25.5802 44.9234 25.1914 44.7735 24.8286C44.6236 24.4657 44.4037 24.136 44.1264 23.8581C43.849 23.5803 43.5197 23.3597 43.1571 23.2092C42.7946 23.0586 42.4059 22.9809 42.0133 22.9806C41.6208 22.9809 41.2321 23.0586 40.8695 23.2092C40.507 23.3597 40.1776 23.5803 39.9003 23.8581C39.623 24.136 39.4031 24.4657 39.2532 24.8286C39.1033 25.1914 39.0263 25.5802 39.0267 25.9728V28.9656H42.0133C42.406 28.9652 42.7948 28.8875 43.1574 28.7368C43.52 28.5862 43.8494 28.3656 44.1268 28.0876C44.4041 27.8096 44.624 27.4797 44.7738 27.1168C44.9237 26.7538 45.0005 26.3649 45 25.9722V25.9728ZM37.0356 25.9728V17.9928C37.036 17.6001 36.9591 17.2113 36.8092 16.8484C36.6594 16.4855 36.4395 16.1557 36.1621 15.8777C35.8848 15.5998 35.5554 15.3793 35.1928 15.2287C34.8302 15.0781 34.4415 15.0004 34.0489 15C33.6563 15.0004 33.2676 15.0781 32.905 15.2287C32.5424 15.3793 32.213 15.5998 31.9357 15.8777C31.6583 16.1557 31.4384 16.4855 31.2886 16.8484C31.1387 17.2113 31.0618 17.6001 31.0622 17.9928V25.9722C31.0618 26.3648 31.1387 26.7537 31.2886 27.1166C31.4384 27.4795 31.6583 27.8093 31.9357 28.0872C32.213 28.3652 32.5424 28.5857 32.905 28.7363C33.2676 28.8869 33.6563 28.9646 34.0489 28.965C34.4415 28.9646 34.8302 28.8869 35.1928 28.7363C35.5554 28.5857 35.8848 28.3652 36.1621 28.0872C36.4395 27.8093 36.6594 27.4795 36.8092 27.1166C36.9591 26.7537 37.036 26.3648 37.0356 25.9722" fill="white"/>
</g>
<defs>
<clipPath id="clip0">
<rect width="30" height="30" fill="white" transform="translate(45 45) rotate(-180)"/>
</clipPath>
</defs>
</svg>
