<svg width="60" height="61" viewBox="0 0 60 61" fill="none" xmlns="http://www.w3.org/2000/svg">
<rect opacity="0.2" x="0.5" y="1.37402" width="59" height="59" rx="19.5" stroke="#404152"/>
<g clip-path="url(#clip0)">
<path d="M40.0003 15.874H20.0008C17.2512 15.874 15 18.1241 15 20.8749V40.8749C15 43.6234 17.2512 45.874 20.0008 45.874H40.0008C42.7505 45.874 45.0017 43.624 45.0017 40.8749V20.8749C45.0011 18.1241 42.75 15.874 40.0003 15.874ZM39.5458 38.8301C39.5458 39.7042 38.8302 40.4175 37.9555 40.4175H22.0445C21.1704 40.4175 20.4542 39.7036 20.4542 38.8301V22.9196C20.4542 22.0456 21.1704 21.3294 22.0445 21.3294H37.9555C38.8302 21.3294 39.5458 22.0456 39.5458 22.9196V38.8301ZM34.0927 34.0559C34.0927 34.5573 33.6832 34.965 33.1847 34.965H26.8209C26.3207 34.965 25.913 34.5567 25.913 34.0559V27.6927C25.913 27.1925 26.3207 26.7842 26.8209 26.7842H33.1842C33.6832 26.7842 34.0921 27.193 34.0921 27.6927V34.0559H34.0927Z" fill="#404152"/>
</g>
<defs>
<clipPath id="clip0">
<rect width="30.0011" height="30" fill="white" transform="translate(15 15.874)"/>
</clipPath>
</defs>
</svg>
