<svg width="60" height="60" viewBox="0 0 60 60" fill="none" xmlns="http://www.w3.org/2000/svg">
<rect opacity="0.2" x="0.5" y="0.5" width="59" height="59" rx="19.5" stroke="white"/>
<g clip-path="url(#clip0)">
<path d="M40.0003 15H20.0008C17.2512 15 15 17.25 15 20.0008V40.0008C15 42.7494 17.2512 45 20.0008 45H40.0008C42.7505 45 45.0017 42.75 45.0017 40.0008V20.0008C45.0011 17.25 42.75 15 40.0003 15ZM39.5458 37.9561C39.5458 38.8301 38.8302 39.5435 37.9555 39.5435H22.0445C21.1704 39.5435 20.4542 38.8296 20.4542 37.9561V22.0456C20.4542 21.1715 21.1704 20.4554 22.0445 20.4554H37.9555C38.8302 20.4554 39.5458 21.1715 39.5458 22.0456V37.9561ZM34.0927 33.1819C34.0927 33.6832 33.6832 34.091 33.1847 34.091H26.8209C26.3207 34.091 25.913 33.6827 25.913 33.1819V26.8186C25.913 26.3184 26.3207 25.9102 26.8209 25.9102H33.1842C33.6832 25.9102 34.0921 26.319 34.0921 26.8186V33.1819H34.0927Z" fill="white"/>
</g>
<defs>
<clipPath id="clip0">
<rect width="30.0011" height="30" fill="white" transform="translate(15 15)"/>
</clipPath>
</defs>
</svg>
