<svg width="143" height="33" viewBox="0 0 143 33" fill="none" xmlns="http://www.w3.org/2000/svg">
<path d="M19.2516 9.86522C18.1409 9.50031 17.0302 9.35434 15.9196 9.35434C15.8455 9.35434 15.7715 9.35434 15.7715 9.35434C15.6974 9.35434 15.6234 9.35434 15.6234 9.35434C14.2165 9.35434 12.8097 9.64627 11.4769 10.1571C11.4769 10.1571 11.4769 10.1571 11.4029 10.1571C11.3288 10.1571 11.3288 10.1571 11.2548 10.1571L10.4403 10.595C8.1449 11.7627 6.21974 13.7333 5.10907 16.0687C4.29458 17.7473 3.85031 19.6448 3.85031 21.5423C3.85031 21.7613 3.85031 21.9072 3.85031 22.1262V22.1992C3.85031 22.4181 3.85031 22.5641 3.92436 22.783V22.856C3.92436 23.002 3.9984 23.2209 3.9984 23.4399V23.5128C3.9984 23.7318 4.07245 23.8778 4.07245 24.0967V24.1697C4.14649 24.3886 4.14649 24.5346 4.22054 24.7535V24.8265C4.29458 24.9725 4.29458 25.1185 4.36863 25.2644C3.18391 24.3157 2.14729 23.1479 1.40685 21.8343C0.444267 20.0097 0 18.1852 0 16.2876C0 12.1277 2.29538 8.33259 5.92356 6.50804C7.40445 5.77822 9.03343 5.34033 10.6624 5.34033C12.3654 5.34033 13.9204 5.70524 15.4753 6.50804C15.5493 6.58103 15.6974 6.65401 15.8455 6.72699C15.8455 6.72699 15.9196 6.72699 15.9196 6.79997H15.9936C16.0677 6.87295 16.1417 6.87295 16.2157 6.94594C16.2157 6.94594 16.2898 6.94594 16.2898 7.01892C16.3638 7.0919 16.4379 7.0919 16.5119 7.16488L16.586 7.23786L16.66 7.31085C16.7341 7.38383 16.8081 7.38383 16.8821 7.45681L17.0302 7.52979C17.1043 7.60277 17.1783 7.60277 17.2524 7.67576C17.3264 7.67576 17.3264 7.74874 17.4005 7.74874C17.4745 7.82172 17.5485 7.82172 17.5485 7.8947C17.6226 7.96768 17.6226 7.96768 17.6966 8.04067C17.7707 8.11365 17.8447 8.11365 17.8447 8.18663C17.9188 8.25961 17.9188 8.25961 17.9928 8.33259C18.0669 8.40558 18.0669 8.40558 18.1409 8.47856C18.2149 8.55154 18.2149 8.55154 18.289 8.62452C18.363 8.6975 18.363 8.77049 18.4371 8.77049C18.5111 8.84347 18.5111 8.91645 18.5852 8.91645C18.6592 8.98943 18.6592 9.06241 18.7333 9.06241L18.8073 9.1354C18.8813 9.20838 18.8813 9.28136 18.9554 9.35434L19.0294 9.42732C19.1775 9.64627 19.1775 9.71925 19.2516 9.86522Z" fill="#AAAAB7"/>
<path d="M24.3604 27.9647C23.4719 29.2054 22.2871 30.3001 20.9543 31.0299C19.3254 31.9787 17.5483 32.4166 15.6972 32.4166C11.6247 32.4166 7.99657 30.0812 6.14546 26.3591C5.40501 24.8265 5.03479 23.2209 5.03479 21.4693C5.03479 19.7177 5.40501 18.1121 6.14546 16.5795C6.2195 16.4335 6.29355 16.3605 6.36759 16.2146C6.36759 16.2146 6.36759 16.1416 6.44163 16.1416V16.0686C6.51568 15.9956 6.51568 15.9227 6.58972 15.8497C6.58972 15.8497 6.58972 15.7767 6.66377 15.7767L6.73781 15.7037C6.81186 15.6307 6.81186 15.5577 6.8859 15.4848L6.95994 15.4118L7.03399 15.3388C7.10803 15.2658 7.10803 15.1928 7.18208 15.1198L7.25612 15.0469C7.33017 14.9739 7.33017 14.9009 7.40421 14.8279C7.40421 14.7549 7.47826 14.7549 7.5523 14.682C7.62634 14.609 7.62634 14.536 7.70039 14.463C7.77443 14.39 7.77443 14.39 7.84848 14.317C7.92252 14.2441 7.92252 14.1711 7.99657 14.1711C8.07061 14.0981 8.07061 14.0981 8.14466 14.0251C8.2187 13.9521 8.2187 13.8792 8.29274 13.8792C8.36679 13.8062 8.36679 13.8062 8.44083 13.7332C8.51488 13.6602 8.58892 13.5872 8.58892 13.5872C8.66297 13.5142 8.66297 13.5142 8.73701 13.4413C8.81106 13.3683 8.8851 13.3683 8.8851 13.2953L8.95915 13.2223C9.03319 13.1493 9.10723 13.1493 9.10723 13.0764L9.18128 13.0034L9.25532 12.9304C9.32937 12.8574 9.40341 12.8574 9.47746 12.7844C9.10723 13.8792 8.95915 15.0469 8.95915 16.2146C8.95915 16.2876 8.95915 16.3605 8.95915 16.4335C8.95915 16.5065 8.95915 16.5795 8.95915 16.5795C8.95915 18.0391 9.25532 19.4988 9.77363 20.8124C9.77363 20.8854 9.77363 20.9584 9.77363 20.9584L10.2179 21.8342C11.3286 24.1696 13.2537 26.1401 15.5491 27.3078C17.2521 28.1836 19.0292 28.6215 20.8803 28.6215C21.0284 28.6215 21.2505 28.6215 21.4727 28.6215H21.5467C21.6948 28.6215 21.9169 28.6215 22.1391 28.5485H22.2131C22.3612 28.5485 22.5833 28.4756 22.7314 28.4756H22.8055C23.0276 28.4756 23.1757 28.4026 23.3238 28.4026H23.3978C23.6199 28.3296 23.768 28.3296 23.9161 28.2566H23.9902C24.0642 28.0377 24.2123 27.9647 24.3604 27.9647Z" fill="#AAAAB7"/>
<path d="M31.4696 16.2876C31.4696 20.4476 29.1742 24.2426 25.546 26.0672C24.0651 26.797 22.4362 27.2349 20.8072 27.2349C20.2148 27.2349 19.5484 27.1619 18.9561 27.0889C17.9194 26.943 16.9569 26.5781 16.0683 26.0672C15.9202 25.9942 15.8462 25.9212 15.6981 25.8482C15.6981 25.8482 15.6241 25.8482 15.6241 25.7753H15.55C15.476 25.7023 15.4019 25.7023 15.3279 25.6293L15.2538 25.5563L15.1798 25.4833C15.1058 25.4103 15.0317 25.4103 14.9577 25.3374L14.8836 25.2644L14.8096 25.3374C14.7355 25.2644 14.6615 25.2644 14.6615 25.1914L14.5874 25.1184C14.5134 25.0454 14.4394 25.0454 14.4394 24.9725C14.3653 24.9725 14.3653 24.8995 14.2913 24.8995C14.2172 24.8265 14.1432 24.8265 14.1432 24.7535C14.0691 24.6805 14.0691 24.6805 13.9951 24.6075C13.921 24.5346 13.847 24.5346 13.847 24.4616C13.773 24.3886 13.773 24.3886 13.6989 24.3156C13.6249 24.2426 13.6249 24.2426 13.5508 24.1697C13.4768 24.0967 13.4768 24.0967 13.4027 24.0237C13.3287 23.9507 13.3287 23.8777 13.2546 23.8777C13.1806 23.8047 13.1806 23.8047 13.1066 23.7318C13.0325 23.6588 13.0325 23.5858 12.9585 23.5858C12.9585 23.5128 12.8844 23.5128 12.8844 23.4398C12.8104 23.3668 12.8104 23.2939 12.7363 23.2939V23.2209C12.7363 23.1479 12.6623 23.1479 12.6623 23.0749C12.5882 23.0019 12.5882 22.929 12.5142 22.929L12.218 22.783C13.3287 23.1479 14.4394 23.2939 15.55 23.2939C15.6241 23.2939 15.6981 23.2939 15.7722 23.2939C15.8462 23.2939 15.9202 23.2939 15.9202 23.2939C17.3271 23.2939 18.7339 23.0019 20.0667 22.4911C20.0667 22.4911 20.0667 22.4911 20.1408 22.4911C20.2148 22.4911 20.2148 22.4911 20.2889 22.4911L21.1034 22.0532C23.3987 20.8855 25.3239 18.9149 26.4346 16.5795C27.249 14.9009 27.6933 13.0034 27.6933 11.1059C27.6933 10.8869 27.6933 10.741 27.6933 10.522V10.449C27.6933 10.3031 27.6933 10.0841 27.6193 9.86518V9.7922C27.6193 9.57325 27.5452 9.42729 27.5452 9.20834V9.13536C27.5452 8.91641 27.4712 8.77045 27.4712 8.5515V8.47852C27.3971 8.25957 27.3971 8.11361 27.3231 7.89466V7.82168C27.249 7.67572 27.249 7.52975 27.175 7.38379C28.3597 8.33256 29.3963 9.50027 30.1368 10.8139C31.0253 12.5655 31.4696 14.3901 31.4696 16.2876Z" fill="#AAAAB7"/>
<path d="M26.4338 11.106C26.4338 12.8576 26.0635 14.4632 25.3231 15.9958C25.2491 16.1418 25.175 16.2147 25.101 16.3607C25.101 16.3607 25.101 16.4337 25.0269 16.4337V16.5067C24.9529 16.5796 24.9529 16.6526 24.8788 16.7256C24.8788 16.7256 24.8788 16.7986 24.8048 16.7986V16.9446C24.7307 17.0175 24.7307 17.0905 24.6567 17.1635L24.5827 17.2365V17.3095C24.5086 17.3824 24.5086 17.4554 24.4346 17.5284L24.3605 17.6014C24.2865 17.6744 24.2865 17.7474 24.2124 17.8203C24.2124 17.8933 24.1384 17.8933 24.1384 17.9663C24.0643 18.0393 24.0643 18.1123 23.9903 18.1852C23.9163 18.2582 23.9163 18.2582 23.8422 18.3312C23.6941 18.3312 23.6941 18.4042 23.6201 18.4772C23.546 18.5502 23.546 18.5502 23.472 18.6231C23.3979 18.6961 23.3979 18.7691 23.3239 18.7691C23.2499 18.8421 23.2499 18.8421 23.1758 18.9151C23.1018 18.9881 23.0277 19.061 23.0277 19.061C22.9537 19.134 22.9537 19.207 22.8796 19.207C22.8056 19.28 22.7315 19.28 22.7315 19.353L22.6575 19.4259C22.5835 19.4989 22.5094 19.4989 22.4354 19.5719L22.3613 19.6449C22.2873 19.7179 22.2132 19.7179 22.1392 19.7909C22.5094 18.6961 22.6575 17.5284 22.6575 16.3607C22.6575 16.2877 22.6575 16.2147 22.6575 16.1418C22.6575 16.0688 22.6575 15.9958 22.6575 15.9958C22.6575 14.5361 22.3613 13.0765 21.843 11.7628C21.843 11.6898 21.843 11.6169 21.843 11.6169L21.3987 10.7411C20.2881 8.40566 18.3629 6.43514 16.0675 5.26743C14.3645 4.53761 12.5874 4.09972 10.6623 4.09972C10.4402 4.09972 10.2921 4.09972 10.0699 4.09972H9.99589C9.8478 4.09972 9.62567 4.09972 9.40353 4.1727H9.32949C9.1814 4.1727 8.95927 4.24568 8.81118 4.24568H8.73713C8.58904 4.24568 8.36691 4.31867 8.21882 4.31867H8.14478C7.92264 4.39165 7.77455 4.39165 7.62647 4.46463H7.55242C7.40433 4.53761 7.25624 4.61059 7.10815 4.68358C7.99669 3.44288 9.1814 2.34815 10.5142 1.61833C12.0691 0.669565 13.9202 0.158691 15.7714 0.158691C19.8438 0.158691 23.472 2.49412 25.3231 6.2162C26.0635 7.74882 26.4338 9.35442 26.4338 11.106Z" fill="#AAAAB7"/>
<path d="M15.7721 18.7689C17.1625 18.7689 18.2897 17.658 18.2897 16.2875C18.2897 14.9171 17.1625 13.8062 15.7721 13.8062C14.3818 13.8062 13.2546 14.9171 13.2546 16.2875C13.2546 17.658 14.3818 18.7689 15.7721 18.7689Z" fill="#AAAAB7"/>
<path d="M47.2396 10.0841H50.7938V21.6153C50.7938 23.5128 50.1274 24.9725 48.8686 25.9212C47.6099 26.943 46.0549 27.3809 44.2779 27.3809C41.4642 27.3809 39.539 26.4321 38.4284 24.4616L41.6123 22.6371C42.2046 23.6588 43.0932 24.1697 44.426 24.1697C46.203 24.1697 47.2396 23.2209 47.2396 21.5423V20.4476C46.3511 21.5423 45.1664 22.0532 43.6115 22.0532C41.9085 22.0532 40.4276 21.4693 39.3169 20.2286C38.1322 18.988 37.6139 17.5283 37.6139 15.8497C37.6139 14.1711 38.2062 12.7115 39.3169 11.5438C40.5016 10.3031 41.9085 9.71924 43.6115 9.71924C45.1664 9.71924 46.3511 10.2301 47.1656 11.3248V10.0841H47.2396ZM44.2038 18.696C45.0924 18.696 45.7587 18.4041 46.3511 17.8932C46.9435 17.3823 47.1656 16.7255 47.1656 15.8497C47.1656 14.9739 46.8694 14.3171 46.3511 13.8062C45.8328 13.2954 45.0924 13.0034 44.2038 13.0034C43.3153 13.0034 42.6489 13.2954 42.0565 13.8062C41.4642 14.3171 41.2421 14.9739 41.2421 15.8497C41.2421 16.7255 41.5382 17.3823 42.0565 17.8932C42.5749 18.4041 43.3893 18.696 44.2038 18.696Z" fill="#AAAAB7"/>
<path d="M57.1623 12.2004C57.6066 10.6678 59.1615 9.79199 60.8645 9.79199V13.879C59.976 13.733 59.0875 13.879 58.347 14.3169C57.6066 14.7548 57.1623 15.5576 57.1623 16.6523V22.1259H53.4601V10.0839H57.1623V12.2004Z" fill="#AAAAB7"/>
<path d="M68.1207 22.5638C66.2696 22.5638 64.7888 21.98 63.53 20.7393C62.2713 19.4986 61.6049 17.966 61.6049 16.2144C61.6049 14.4628 62.2713 12.9302 63.53 11.6895C64.7888 10.4488 66.3437 9.79199 68.1207 9.79199C69.8978 9.79199 71.4527 10.4488 72.7115 11.6895C73.9702 12.9302 74.6366 14.4628 74.6366 16.2144C74.6366 17.966 73.9702 19.4986 72.7115 20.7393C71.4527 21.98 69.9719 22.5638 68.1207 22.5638ZM68.1207 18.9877C68.9352 18.9877 69.6016 18.6958 70.1199 18.1849C70.6382 17.674 70.9344 16.9442 70.9344 16.1414C70.9344 15.3386 70.6382 14.6088 70.1199 14.0979C69.6016 13.5871 68.9352 13.2951 68.1207 13.2951C67.3063 13.2951 66.6399 13.5871 66.1216 14.0979C65.6032 14.6088 65.3071 15.3386 65.3071 16.1414C65.3071 16.9442 65.6032 17.674 66.1216 18.1849C66.6399 18.6958 67.3063 18.9877 68.1207 18.9877Z" fill="#AAAAB7"/>
<path d="M89.7408 10.084H93.6651L89.7408 22.199H86.3347L84.3355 15.7036L82.3364 22.199H78.9303L75.006 10.084H78.9303L80.7074 16.5794L82.6325 10.084H86.0386L87.9637 16.5794L89.7408 10.084Z" fill="#AAAAB7"/>
<path d="M102.403 13.5871H99.8851V17.893C99.8851 18.8418 100.626 19.0607 102.403 18.9148V22.199C100.033 22.4179 98.4783 22.199 97.5157 21.5421C96.6272 20.8123 96.1829 19.6446 96.1829 17.893V13.5871H94.1837V10.084H96.1829V7.74854L99.8851 6.65381V10.011H102.403V13.5871Z" fill="#AAAAB7"/>
<path d="M114.916 11.0327C115.805 11.9084 116.249 13.1491 116.249 14.6818V22.1259H112.547V15.1926C112.547 13.733 111.658 13.0032 110.399 13.0032C108.992 13.0032 108.104 13.879 108.104 15.4846V22.1259H104.402V5.19409H108.104V11.1786C108.844 10.1569 110.029 9.71898 111.584 9.71898C112.991 9.71898 114.102 10.1569 114.916 11.0327Z" fill="#AAAAB7"/>
<path d="M126.764 10.084H130.466V22.199H126.764V21.0313C126.024 22.053 124.839 22.4909 123.284 22.4909C121.951 22.4909 120.84 22.053 120.026 21.1772C119.137 20.3015 118.693 19.0608 118.693 17.5281V10.084H122.395V16.9443C122.395 18.4039 123.284 19.1338 124.543 19.1338C125.949 19.1338 126.838 18.258 126.838 16.6524V10.084H126.764Z" fill="#AAAAB7"/>
<path d="M138.684 14.6818C140.387 15.0467 142.609 15.9225 142.609 18.5498C142.609 19.8635 142.09 20.8853 141.128 21.5421C140.165 22.1989 138.907 22.5638 137.5 22.5638C134.908 22.5638 133.131 21.6151 132.243 19.6446L135.426 17.82C135.723 18.7688 136.463 19.2796 137.5 19.2796C138.388 19.2796 138.833 19.0607 138.833 18.5498C138.833 18.039 137.87 17.747 136.685 17.4551C134.982 17.0172 132.761 16.1414 132.761 13.733C132.761 12.4923 133.205 11.4706 134.168 10.8137C135.13 10.0839 136.241 9.79199 137.574 9.79199C139.647 9.79199 141.35 10.7408 142.387 12.4193L139.203 14.0249C138.833 13.2951 138.24 12.9302 137.574 12.9302C136.907 12.9302 136.537 13.1492 136.537 13.5871C136.537 14.0979 137.5 14.3899 138.684 14.6818Z" fill="#AAAAB7"/>
</svg>
