<svg width="167" height="32" viewBox="0 0 167 32" fill="none" xmlns="http://www.w3.org/2000/svg">
<path d="M23.2917 2.13235C22.5281 1.69324 21.7071 1.3305 20.8862 1.02504C19.187 0.414108 17.4115 0.108643 15.5978 0.108643C6.98752 0.108643 0 7.09616 0 15.7065C0 20.0021 1.69915 23.9922 4.79199 26.9705C6.93025 29.0133 9.58398 30.407 12.4668 30.9988C13.4978 31.2088 14.5478 31.3043 15.5978 31.3043C24.189 31.3043 31.1957 24.3168 31.1957 15.7065C31.1957 10.1126 28.1601 4.90063 23.2917 2.13235ZM10.424 26.1878V27.1423V26.1878C9.77489 26.1878 9.18305 25.8823 8.80122 25.3668C7.10207 23.0185 6.20477 20.2312 6.20477 17.3293C6.20477 9.78808 12.3523 3.64059 19.9125 3.64059C20.5425 3.64059 21.1344 3.94605 21.4971 4.44243C23.2154 6.7907 24.1318 9.59716 24.1318 12.5182C24.1127 20.0403 17.9652 26.1878 10.424 26.1878Z" fill="#AAAAB7"/>
<path d="M59.1855 14.2229C59.1855 16.1256 58.8273 17.7372 58.1334 19.0802C57.4171 20.4233 56.477 21.453 55.2459 22.1692C54.0371 22.8855 52.6493 23.2437 51.1272 23.2437C49.5827 23.2437 48.2173 22.8855 47.0086 22.1692C45.7998 21.453 44.8373 20.4233 44.121 19.0802C43.4047 17.7372 43.069 16.1256 43.069 14.2229C43.069 12.3203 43.4271 10.7086 44.121 9.36558C44.8373 8.02254 45.7774 6.99287 47.0086 6.27658C48.2173 5.56029 49.6051 5.20215 51.1272 5.20215C52.6717 5.20215 54.0371 5.56029 55.2459 6.27658C56.4546 6.99287 57.4171 8.02254 58.1334 9.36558C58.8273 10.7086 59.1855 12.3427 59.1855 14.2229ZM55.9846 14.2229C55.9846 12.8799 55.7831 11.7607 55.3578 10.8429C54.9325 9.92518 54.3729 9.23127 53.6342 8.76121C52.8956 8.29114 52.0674 8.04492 51.1048 8.04492C50.1423 8.04492 49.3141 8.29114 48.5754 8.76121C47.8368 9.23127 47.2772 9.92518 46.8519 10.8429C46.4266 11.7607 46.2251 12.8799 46.2251 14.2229C46.2251 15.566 46.4266 16.6852 46.8519 17.6029C47.2772 18.5206 47.8368 19.2146 48.5754 19.6846C49.3141 20.1547 50.1423 20.4009 51.1048 20.4009C52.0674 20.4009 52.8956 20.1547 53.6342 19.6846C54.3729 19.2146 54.9325 18.5206 55.3578 17.6029C55.7831 16.6852 55.9846 15.566 55.9846 14.2229Z" fill="#AAAAB7"/>
<path d="M62.0508 27.9443V9.83557H65.095V12.0068H65.2741C65.4308 11.6934 65.6546 11.3353 65.9456 10.9772C66.2366 10.619 66.6395 10.3056 67.132 10.037C67.6244 9.76841 68.2735 9.65649 69.0346 9.65649C70.0419 9.65649 70.982 9.9251 71.7878 10.4399C72.616 10.9548 73.2652 11.7158 73.7352 12.7231C74.2277 13.7304 74.4515 14.9615 74.4515 16.4389C74.4515 17.8938 74.2053 19.1249 73.7352 20.1322C73.2652 21.1395 72.616 21.9229 71.7878 22.4378C70.9596 22.975 70.0419 23.2436 69.0122 23.2436C68.2512 23.2436 67.6244 23.1093 67.132 22.8631C66.6395 22.6168 66.2366 22.3035 65.9456 21.9453C65.6546 21.5872 65.4084 21.2514 65.2517 20.938H65.1622V27.9443H62.0508ZM65.095 16.4165C65.095 17.2671 65.2069 18.0057 65.4532 18.6549C65.6994 19.304 66.0575 19.7965 66.5052 20.1546C66.9753 20.5128 67.5349 20.6918 68.184 20.6918C68.8779 20.6918 69.4375 20.5128 69.9076 20.1322C70.3776 19.7741 70.7134 19.2592 70.9596 18.6101C71.2058 17.961 71.3178 17.2447 71.3178 16.4165C71.3178 15.5883 71.2058 14.872 70.9596 14.2452C70.7358 13.6185 70.3776 13.1036 69.9076 12.7455C69.4375 12.3873 68.8779 12.2083 68.184 12.2083C67.5125 12.2083 66.9529 12.3873 66.5052 12.7231C66.0351 13.0813 65.6994 13.5513 65.4532 14.2005C65.2293 14.8272 65.095 15.5659 65.095 16.4165Z" fill="#AAAAB7"/>
<path d="M82.9797 23.266C81.6591 23.266 80.5175 22.9974 79.555 22.4378C78.5924 21.8782 77.8538 21.0947 77.3389 20.0875C76.8241 19.0802 76.5779 17.8714 76.5779 16.506C76.5779 15.1406 76.8465 13.9542 77.3613 12.9246C77.8762 11.8949 78.5924 11.0891 79.5326 10.5295C80.4727 9.94749 81.5695 9.65649 82.823 9.65649C83.6288 9.65649 84.4123 9.7908 85.1286 10.037C85.8449 10.3056 86.494 10.7085 87.0536 11.2458C87.6132 11.783 88.0385 12.4769 88.3743 13.3275C88.6876 14.1557 88.8443 15.163 88.8443 16.3269V17.2894H78.0552V15.2077H85.8673C85.8673 14.6034 85.7329 14.0885 85.4867 13.6185C85.2405 13.1484 84.8824 12.7903 84.4347 12.5217C83.987 12.253 83.4722 12.1187 82.8678 12.1187C82.241 12.1187 81.6814 12.2754 81.189 12.5664C80.7189 12.8798 80.3384 13.2827 80.0698 13.7752C79.8012 14.2676 79.6669 14.8048 79.6669 15.4092V17.2447C79.6669 18.0057 79.8012 18.6773 80.0922 19.2145C80.3832 19.7517 80.7637 20.177 81.2561 20.468C81.7486 20.759 82.353 20.8933 83.0245 20.8933C83.4722 20.8933 83.8751 20.8261 84.2556 20.6918C84.6137 20.5575 84.9495 20.3784 85.2181 20.1322C85.4867 19.886 85.6882 19.5726 85.8225 19.1921L88.71 19.5279C88.531 20.2889 88.1728 20.9604 87.658 21.52C87.1431 22.0796 86.494 22.5273 85.6882 22.8407C84.8824 23.1541 83.987 23.266 82.9797 23.266Z" fill="#AAAAB7"/>
<path d="M94.5523 15.2973V23.0198H91.4409V9.83557H94.418V12.074H94.5747C94.8881 11.3353 95.3581 10.7533 96.0296 10.3056C96.7012 9.88033 97.5294 9.65649 98.5143 9.65649C99.432 9.65649 100.215 9.85795 100.887 10.2385C101.559 10.619 102.096 11.201 102.454 11.9173C102.812 12.6336 103.013 13.5513 103.013 14.6034V22.9974H99.9021V15.0958C99.9021 14.2228 99.6782 13.5289 99.2306 13.0365C98.7829 12.544 98.1561 12.2978 97.3503 12.2978C96.8131 12.2978 96.3206 12.4097 95.8953 12.656C95.47 12.9022 95.1567 13.2379 94.9104 13.6856C94.6866 14.1109 94.5523 14.6481 94.5523 15.2973Z" fill="#AAAAB7"/>
<path d="M112.168 22.9974V9.83557H115.146V12.074H115.302C115.571 11.3129 116.041 10.7309 116.668 10.3056C117.294 9.88033 118.055 9.65649 118.951 9.65649C119.846 9.65649 120.585 9.88033 121.212 10.3056C121.816 10.7309 122.264 11.3353 122.51 12.074H122.644C122.935 11.3353 123.428 10.7533 124.122 10.328C124.815 9.88033 125.644 9.67888 126.606 9.67888C127.815 9.67888 128.8 10.0594 129.583 10.8205C130.344 11.5815 130.725 12.7007 130.725 14.1781V23.0198H127.613V14.6481C127.613 13.8199 127.39 13.2379 126.964 12.8574C126.539 12.4769 126.002 12.2978 125.375 12.2978C124.636 12.2978 124.032 12.5217 123.629 12.9917C123.204 13.4618 123.002 14.0661 123.002 14.8048V23.0198H119.958V14.5138C119.958 13.8423 119.757 13.2827 119.354 12.8798C118.951 12.4769 118.414 12.2754 117.764 12.2754C117.317 12.2754 116.914 12.3873 116.556 12.6112C116.198 12.835 115.907 13.1484 115.683 13.5737C115.459 13.9766 115.347 14.4691 115.347 15.0063V23.0198H112.168V22.9974Z" fill="#AAAAB7"/>
<path d="M135.403 7.95526C134.911 7.95526 134.485 7.79857 134.127 7.46281C133.769 7.12705 133.59 6.74652 133.59 6.27646C133.59 5.80639 133.769 5.40348 134.127 5.09011C134.485 4.75434 134.911 4.59766 135.403 4.59766C135.896 4.59766 136.321 4.75434 136.679 5.09011C137.037 5.42587 137.216 5.82878 137.216 6.27646C137.216 6.74652 137.037 7.12705 136.679 7.46281C136.321 7.79857 135.896 7.95526 135.403 7.95526ZM133.836 22.9973V9.83552H136.948V22.9973H133.836Z" fill="#AAAAB7"/>
<path d="M143.237 15.2973V23.0198H140.148V9.83557H143.126V12.074H143.282C143.596 11.3353 144.066 10.7533 144.737 10.3056C145.409 9.88033 146.237 9.65649 147.222 9.65649C148.14 9.65649 148.923 9.85795 149.595 10.2385C150.266 10.619 150.803 11.201 151.161 11.9173C151.52 12.6336 151.721 13.5513 151.721 14.6034V22.9974H148.61V15.0958C148.61 14.2228 148.386 13.5289 147.938 13.0365C147.49 12.544 146.864 12.2978 146.058 12.2978C145.521 12.2978 145.028 12.4097 144.603 12.656C144.178 12.9022 143.864 13.2379 143.618 13.6856C143.372 14.1109 143.237 14.6481 143.237 15.2973Z" fill="#AAAAB7"/>
<path d="M159.757 23.2435C158.727 23.2435 157.787 22.9749 156.981 22.4377C156.153 21.9005 155.526 21.1395 155.034 20.1322C154.564 19.1249 154.318 17.8938 154.318 16.4388C154.318 14.9838 154.564 13.7303 155.034 12.7231C155.526 11.7158 156.176 10.9547 157.004 10.4399C157.832 9.92505 158.75 9.65644 159.757 9.65644C160.518 9.65644 161.167 9.79074 161.66 10.037C162.152 10.3056 162.555 10.619 162.846 10.9771C163.137 11.3352 163.361 11.671 163.517 12.0068H163.652V5.44824H166.763V23.0197H163.719V20.938H163.54C163.383 21.2514 163.137 21.5871 162.846 21.9453C162.533 22.3034 162.152 22.6168 161.637 22.863C161.122 23.1092 160.496 23.2435 159.757 23.2435ZM160.608 20.6918C161.257 20.6918 161.816 20.5127 162.286 20.1546C162.756 19.7964 163.092 19.304 163.338 18.6548C163.585 18.0057 163.697 17.267 163.697 16.4164C163.697 15.5658 163.585 14.8272 163.338 14.2004C163.092 13.5736 162.756 13.0812 162.286 12.7231C161.816 12.3649 161.257 12.2082 160.585 12.2082C159.891 12.2082 159.309 12.3873 158.862 12.7454C158.392 13.1036 158.056 13.596 157.81 14.2452C157.586 14.8719 157.451 15.6106 157.451 16.4164C157.451 17.2446 157.563 17.9833 157.81 18.6101C158.056 19.2368 158.392 19.7516 158.862 20.1322C159.354 20.5127 159.936 20.6918 160.608 20.6918Z" fill="#AAAAB7"/>
</svg>
