<svg width="60" height="61" viewBox="0 0 60 61" fill="none" xmlns="http://www.w3.org/2000/svg">
<rect opacity="0.2" x="0.5" y="1.37402" width="59" height="59" rx="19.5" stroke="#404152"/>
<g clip-path="url(#clip0)">
<path fill-rule="evenodd" clip-rule="evenodd" d="M34.0489 45.8002C34.4415 45.7998 34.8302 45.7221 35.1928 45.5715C35.5554 45.4209 35.8848 45.2003 36.1621 44.9224C36.4395 44.6445 36.6594 44.3147 36.8092 43.9518C36.9591 43.5889 37.036 43.2 37.0356 42.8074C37.0359 42.4148 36.959 42.026 36.8091 41.6632C36.6592 41.3003 36.4393 40.9706 36.1619 40.6927C35.8846 40.4149 35.5552 40.1944 35.1927 40.0438C34.8301 39.8932 34.4415 39.8155 34.0489 39.8152H31.0622V42.8074C31.0618 43.2 31.1387 43.5889 31.2886 43.9518C31.4384 44.3147 31.6583 44.6445 31.9357 44.9224C32.213 45.2003 32.5424 45.4209 32.905 45.5715C33.2676 45.7221 33.6563 45.7998 34.0489 45.8002ZM34.0489 37.8196H42.0133C42.4059 37.8193 42.7946 37.7416 43.1571 37.591C43.5197 37.4404 43.849 37.2199 44.1264 36.9421C44.4037 36.6642 44.6236 36.3345 44.7735 35.9716C44.9234 35.6088 45.0004 35.22 45 34.8274C45.0004 34.4348 44.9235 34.0459 44.7737 33.683C44.6238 33.3201 44.4039 32.9903 44.1266 32.7124C43.8492 32.4345 43.5199 32.2139 43.1573 32.0633C42.7947 31.9127 42.406 31.835 42.0133 31.8346H34.0489C33.6563 31.835 33.2676 31.9127 32.905 32.0633C32.5424 32.2139 32.213 32.4345 31.9357 32.7124C31.6583 32.9903 31.4384 33.3201 31.2886 33.683C31.1387 34.0459 31.0618 34.4348 31.0622 34.8274C31.0619 35.22 31.1388 35.6088 31.2887 35.9716C31.4386 36.3345 31.6585 36.6642 31.9358 36.9421C32.2132 37.2199 32.5425 37.4404 32.9051 37.591C33.2676 37.7416 33.6563 37.8193 34.0489 37.8196Z" fill="#404152"/>
<path fill-rule="evenodd" clip-rule="evenodd" d="M15.1334 34.8274C15.133 35.22 15.21 35.6088 15.3599 35.9716C15.5098 36.3345 15.7297 36.6642 16.007 36.9421C16.2843 37.2199 16.6137 37.4404 16.9763 37.591C17.3388 37.7416 17.7275 37.8193 18.1201 37.8196C18.5126 37.8193 18.9013 37.7416 19.2639 37.591C19.6264 37.4404 19.9558 37.2199 20.2331 36.9421C20.5104 36.6642 20.7303 36.3345 20.8802 35.9716C21.0301 35.6088 21.1071 35.22 21.1067 34.8274V31.8346H18.1201C17.7274 31.835 17.3387 31.9127 16.9761 32.0633C16.6135 32.2139 16.2842 32.4345 16.0068 32.7124C15.7295 32.9903 15.5096 33.3201 15.3597 33.683C15.2099 34.0459 15.1329 34.4348 15.1334 34.8274ZM23.0978 34.8274V42.8074C23.0974 43.2 23.1743 43.5889 23.3242 43.9518C23.474 44.3147 23.6939 44.6445 23.9713 44.9224C24.2486 45.2003 24.578 45.4209 24.9406 45.5715C25.3032 45.7221 25.6919 45.7998 26.0845 45.8002C26.4771 45.7998 26.8658 45.7221 27.2284 45.5715C27.591 45.4209 27.9204 45.2003 28.1977 44.9224C28.4751 44.6445 28.695 44.3147 28.8448 43.9518C28.9947 43.5889 29.0716 43.2 29.0712 42.8074V34.8274C29.0716 34.4348 28.9947 34.0459 28.8448 33.683C28.695 33.3201 28.4751 32.9903 28.1977 32.7124C27.9204 32.4345 27.591 32.2139 27.2284 32.0633C26.8658 31.9127 26.4771 31.835 26.0845 31.8346C25.6919 31.835 25.3032 31.9127 24.9406 32.0633C24.578 32.2139 24.2486 32.4345 23.9713 32.7124C23.6939 32.9903 23.474 33.3201 23.3242 33.683C23.1743 34.0459 23.0974 34.4348 23.0978 34.8274Z" fill="#404152"/>
<path fill-rule="evenodd" clip-rule="evenodd" d="M26.0845 15.874C25.6919 15.8744 25.3032 15.9521 24.9406 16.1027C24.578 16.2533 24.2486 16.4739 23.9713 16.7518C23.6939 17.0297 23.474 17.3595 23.3242 17.7224C23.1743 18.0853 23.0974 18.4742 23.0978 18.8668C23.0975 19.2594 23.1744 19.6482 23.3243 20.011C23.4742 20.3739 23.6941 20.7036 23.9715 20.9815C24.2488 21.2593 24.5781 21.4799 24.9407 21.6304C25.3033 21.781 25.6919 21.8587 26.0845 21.859H29.0712V18.8668C29.0716 18.4742 28.9947 18.0853 28.8448 17.7224C28.695 17.3595 28.4751 17.0297 28.1977 16.7518C27.9204 16.4739 27.591 16.2533 27.2284 16.1027C26.8658 15.9521 26.4771 15.8744 26.0845 15.874ZM26.0845 23.8546H18.1201C17.7275 23.855 17.3388 23.9326 16.9763 24.0832C16.6137 24.2338 16.2843 24.4543 16.007 24.7322C15.7297 25.01 15.5098 25.3398 15.3599 25.7026C15.21 26.0654 15.133 26.4542 15.1334 26.8468C15.1329 27.2394 15.2099 27.6283 15.3597 27.9912C15.5096 28.3541 15.7295 28.6839 16.0068 28.9619C16.2842 29.2398 16.6135 29.4603 16.9761 29.6109C17.3387 29.7615 17.7274 29.8392 18.1201 29.8396H26.0845C26.4771 29.8392 26.8658 29.7615 27.2284 29.6109C27.591 29.4603 27.9204 29.2398 28.1977 28.9619C28.4751 28.6839 28.695 28.3541 28.8448 27.9912C28.9947 27.6283 29.0716 27.2394 29.0712 26.8468C29.0715 26.4542 28.9946 26.0654 28.8447 25.7026C28.6948 25.3398 28.4749 25.01 28.1975 24.7322C27.9202 24.4543 27.5909 24.2338 27.2283 24.0832C26.8657 23.9326 26.4771 23.855 26.0845 23.8546Z" fill="#404152"/>
<path fill-rule="evenodd" clip-rule="evenodd" d="M45 26.8468C45.0004 26.4542 44.9234 26.0654 44.7735 25.7026C44.6236 25.3398 44.4037 25.01 44.1264 24.7322C43.849 24.4543 43.5197 24.2338 43.1571 24.0832C42.7946 23.9326 42.4059 23.855 42.0133 23.8546C41.6208 23.855 41.2321 23.9326 40.8695 24.0832C40.507 24.2338 40.1776 24.4543 39.9003 24.7322C39.623 25.01 39.4031 25.3398 39.2532 25.7026C39.1033 26.0654 39.0263 26.4542 39.0267 26.8468V29.8396H42.0133C42.406 29.8392 42.7948 29.7615 43.1574 29.6109C43.52 29.4602 43.8494 29.2396 44.1268 28.9617C44.4041 28.6837 44.624 28.3538 44.7738 27.9908C44.9237 27.6279 45.0005 27.2389 45 26.8463V26.8468ZM37.0356 26.8468V18.8668C37.036 18.4742 36.9591 18.0853 36.8092 17.7224C36.6594 17.3595 36.4395 17.0297 36.1621 16.7518C35.8848 16.4739 35.5554 16.2533 35.1928 16.1027C34.8302 15.9521 34.4415 15.8744 34.0489 15.874C33.6563 15.8744 33.2676 15.9521 32.905 16.1027C32.5424 16.2533 32.213 16.4739 31.9357 16.7518C31.6583 17.0297 31.4384 17.3595 31.2886 17.7224C31.1387 18.0853 31.0618 18.4742 31.0622 18.8668V26.8463C31.0618 27.2389 31.1387 27.6278 31.2886 27.9907C31.4384 28.3536 31.6583 28.6834 31.9357 28.9613C32.213 29.2392 32.5424 29.4598 32.905 29.6104C33.2676 29.761 33.6563 29.8387 34.0489 29.839C34.4415 29.8387 34.8302 29.761 35.1928 29.6104C35.5554 29.4598 35.8848 29.2392 36.1621 28.9613C36.4395 28.6834 36.6594 28.3536 36.8092 27.9907C36.9591 27.6278 37.036 27.2389 37.0356 26.8463" fill="#404152"/>
</g>
<defs>
<clipPath id="clip0">
<rect width="30" height="30" fill="white" transform="translate(45 45.874) rotate(-180)"/>
</clipPath>
</defs>
</svg>
