<svg width="20" height="20" viewBox="0 0 20 20" fill="none" xmlns="http://www.w3.org/2000/svg">
<path d="M15.137 3.83569C14.5205 3.83569 14.0068 4.34939 14.0068 4.96583C14.0068 5.58227 14.5205 6.09597 15.137 6.09597C15.7534 6.09597 16.2671 5.58227 16.2671 4.96583C16.2671 4.34939 15.7534 3.83569 15.137 3.83569Z" fill="white"/>
<path d="M10.1029 5.27393C7.43163 5.27393 5.37683 7.43146 5.37683 9.99995C5.37683 12.6712 7.53437 14.726 10.1029 14.726C12.7741 14.726 14.8289 12.5684 14.8289 9.99995C14.8289 7.43146 12.7741 5.27393 10.1029 5.27393ZM10.1029 13.0821C8.45902 13.0821 7.02067 11.7465 7.02067 9.99995C7.02067 8.25338 8.35629 6.91776 10.1029 6.91776C11.7467 6.91776 13.1851 8.25338 13.1851 9.99995C13.1851 11.7465 11.7467 13.0821 10.1029 13.0821Z" fill="white"/>
<path d="M13.9042 19.6576H6.19874C3.0138 19.6576 0.445312 17.0891 0.445312 13.9042V6.19874C0.445312 3.01381 3.0138 0.445312 6.19874 0.445312H13.9042C17.0891 0.445312 19.6576 3.01381 19.6576 6.19874V13.9042C19.6576 17.0891 17.0891 19.6576 13.9042 19.6576ZM6.19874 2.19189C4.0412 2.19189 2.19189 3.93846 2.19189 6.19874V13.9042C2.19189 16.0618 3.93846 17.9111 6.19874 17.9111H13.9042C16.0617 17.9111 17.9111 16.1645 17.9111 13.9042V6.19874C17.9111 4.0412 16.1645 2.19189 13.9042 2.19189H6.19874Z" fill="white"/>
</svg>
