<svg width="15" height="15" viewBox="0 0 15 15" fill="none" xmlns="http://www.w3.org/2000/svg">
<path d="M0.732958 5.22583H3.60966V14.5751H0.732958V5.22583ZM2.17131 0.602539C3.09597 0.602539 3.81515 1.32172 3.81515 2.24637C3.81515 3.17103 3.09597 3.89021 2.17131 3.89021C1.24665 3.89021 0.527466 3.17103 0.527466 2.24637C0.527466 1.32172 1.24665 0.602539 2.17131 0.602539Z" fill="white"/>
<path d="M5.45886 5.22619H8.23283V6.45906C8.64379 5.73989 9.56846 4.91797 11.0068 4.91797C13.9863 4.91797 14.5 6.87002 14.5 9.33578V14.4728H11.6232V9.95222C11.6232 8.82208 11.6232 7.48646 10.0821 7.48646C8.54105 7.48646 8.33558 8.6166 8.33558 9.84947V14.5755H5.45886V5.22619Z" fill="white"/>
</svg>
