<svg width="18" height="12" viewBox="0 0 18 12" fill="none" xmlns="http://www.w3.org/2000/svg">
<path d="M8.92465 8.67117C8.92465 9.08213 8.82191 9.49309 8.61643 9.90405C8.41095 10.2123 8.20547 10.5205 7.89725 10.726C7.58903 10.9314 7.17807 11.1369 6.76711 11.2397C6.35615 11.3424 5.94519 11.4451 5.43149 11.4451H0.191772V0.657471H5.94519C6.35615 0.657471 6.66437 0.760211 6.97259 0.862951C7.2808 1.06843 7.48629 1.27391 7.79451 1.47939C7.99999 1.78761 8.20547 1.99309 8.3082 2.40405C8.41094 2.71227 8.51368 3.02049 8.51368 3.43144C8.51368 3.94514 8.41095 4.45884 8.10273 4.8698C7.79451 5.3835 7.48628 5.69172 6.97259 5.8972C7.58902 6.10268 8.10273 6.4109 8.41095 6.92459C8.71917 7.43829 8.92465 8.05473 8.92465 8.67117ZM2.24657 2.50679V5.28076H5.02054C5.32876 5.28076 5.63697 5.17802 5.94519 4.8698C6.15067 4.66432 6.35616 4.25336 6.35616 3.8424C6.35616 3.43144 6.25341 3.12322 6.04793 2.81501C5.84245 2.60953 5.53423 2.40405 5.22601 2.40405H2.24657V2.50679ZM6.76711 8.36295C6.76711 8.15747 6.76712 7.95199 6.66438 7.84925C6.56164 7.64377 6.4589 7.54103 6.35616 7.33555C6.25342 7.23281 6.15067 7.13007 5.94519 7.02733C5.84245 6.92459 5.63697 6.92459 5.43149 6.92459H2.24657V9.80131H5.32876C5.53424 9.80131 5.73972 9.80131 5.84246 9.69857C6.04794 9.59583 6.15067 9.49309 6.25341 9.39035C6.35615 9.28761 6.45889 9.08213 6.56163 8.97939C6.76711 8.67117 6.76711 8.56843 6.76711 8.36295Z" fill="white"/>
<path d="M13.4452 11.5479C12.8288 11.5479 12.2123 11.4451 11.8014 11.2397C10.774 10.8287 10.0548 10.1095 9.74658 9.08213C9.5411 8.56843 9.43835 8.05473 9.43835 7.54103C9.43835 7.02733 9.5411 6.51363 9.74658 5.99993C10.1575 4.97254 10.8767 4.25336 11.8014 3.8424C12.3151 3.63692 12.8288 3.53418 13.5479 3.53418C14.1644 3.53418 14.7808 3.63692 15.1918 3.8424C16.8356 4.56158 17.5548 6.10267 17.5548 7.84925C17.5548 7.95199 17.5548 8.05473 17.5548 8.15747H11.5959C11.5959 8.46569 11.6986 8.77391 11.8014 8.97939C11.9041 9.18486 12.1096 9.39034 12.2123 9.59582C12.4178 9.8013 12.6233 9.90404 12.8288 10.0068C13.0342 10.1095 13.3425 10.1095 13.5479 10.1095C13.9589 10.1095 14.2671 10.0068 14.6781 9.8013C14.9863 9.59582 15.2945 9.39034 15.3973 9.08213L17.1438 9.59582C16.8356 10.2123 16.4247 10.6232 15.8082 11.0342C15.089 11.3424 14.2671 11.5479 13.4452 11.5479ZM15.5 6.82185C15.5 6.20541 15.1918 5.79445 14.8836 5.38349C14.4726 5.07528 14.0616 4.8698 13.5479 4.8698C13.2397 4.8698 13.0342 4.8698 12.8288 4.97254C12.6233 5.07528 12.4178 5.17802 12.2123 5.38349C12.0068 5.58897 11.9041 5.79445 11.8014 5.99993C11.6986 6.20541 11.5959 6.51363 11.5959 6.82185H15.5Z" fill="white"/>
<path d="M10.8767 1.17114H16.0137V2.50676H10.8767V1.17114Z" fill="white"/>
</svg>
