<svg width="17" height="14" viewBox="0 0 17 14" fill="none" xmlns="http://www.w3.org/2000/svg">
<path d="M16.3219 1.86285C15.8082 2.06833 15.1918 2.27381 14.6781 2.37655C14.9863 2.37655 15.2945 1.86285 15.5 1.65737C15.7055 1.34915 15.911 1.04093 16.0137 0.629975V0.527236H15.9109C15.2945 0.835455 14.6781 1.14367 13.9589 1.24641C13.8562 1.24641 13.8561 1.24641 13.8561 1.24641C13.7534 1.14367 13.7534 1.14367 13.6507 1.04093C13.3425 0.835455 13.0342 0.629975 12.726 0.424496C12.3151 0.219016 11.8014 0.116277 11.2877 0.219016C10.774 0.219016 10.363 0.424495 9.95205 0.629975C9.54109 0.835454 9.13013 1.14367 8.82191 1.55463C8.51369 1.96559 8.30821 2.37655 8.20547 2.89025C8.10273 3.40395 8.10273 3.81491 8.20547 4.3286C8.20547 4.43134 8.20547 4.43134 8.10273 4.43134C5.43149 4.02039 3.17122 3.09573 1.32191 1.04093C1.21917 0.938194 1.21917 0.938194 1.11643 1.04093C0.294514 2.27381 0.705471 4.12313 1.73287 5.04778C1.83561 5.15052 2.04109 5.25326 2.14383 5.45874C2.04109 5.45874 1.42465 5.356 0.808209 5.04778C0.705469 5.04778 0.705471 5.04778 0.705471 5.15052C0.705471 5.25326 0.705471 5.356 0.705471 5.56148C0.808211 6.79436 1.73287 7.92449 2.863 8.33545C2.96574 8.43819 3.17122 8.43819 3.27396 8.43819C2.96574 8.54093 2.76026 8.54093 2.04108 8.43819C1.93834 8.43819 1.93834 8.43819 1.93834 8.54093C2.45204 10.082 3.68492 10.493 4.60958 10.8012C4.71232 10.8012 4.81506 10.8012 5.02054 10.8012C4.71232 11.2122 3.68492 11.6231 3.17123 11.7259C2.24657 12.0341 1.32191 12.1368 0.397249 12.0341C0.294509 12.0341 0.191772 12.0341 0.191772 12.0341V12.1368C0.397252 12.2396 0.60273 12.3423 0.808209 12.445C1.42465 12.7533 2.04109 13.0615 2.65753 13.1642C6.04794 14.0889 9.74656 13.3697 12.3151 10.9039C14.2671 8.95189 14.9863 6.28066 14.9863 3.50669C14.9863 3.40395 15.089 3.30121 15.1918 3.30121C15.7055 2.89025 16.1164 2.47929 16.5274 1.96559C16.4246 2.06833 16.4246 1.96559 16.3219 1.86285C16.4246 1.86285 16.4246 1.86285 16.3219 1.86285C16.4246 1.86285 16.4246 1.86285 16.3219 1.86285Z" fill="white"/>
</svg>
