<svg width="60" height="61" viewBox="0 0 60 61" fill="none" xmlns="http://www.w3.org/2000/svg">
<rect opacity="0.2" x="0.5" y="1.37402" width="59" height="59" rx="19.5" stroke="#404152"/>
<g clip-path="url(#clip0)">
<path d="M30 30.374C30 29.1805 30.4741 28.036 31.318 27.192C32.1619 26.3481 33.3065 25.874 34.5 25.874C35.6935 25.874 36.8381 26.3481 37.682 27.192C38.5259 28.036 39 29.1805 39 30.374C39 31.5675 38.5259 32.7121 37.682 33.556C36.8381 34.3999 35.6935 34.874 34.5 34.874C33.3065 34.874 32.1619 34.3999 31.318 33.556C30.4741 32.7121 30 31.5675 30 30.374Z" fill="#404152"/>
<path d="M21 39.374C21 38.1805 21.4741 37.036 22.318 36.192C23.1619 35.3481 24.3065 34.874 25.5 34.874H30V39.374C30 40.5675 29.5259 41.7121 28.682 42.556C27.8381 43.3999 26.6935 43.874 25.5 43.874C24.3065 43.874 23.1619 43.3999 22.318 42.556C21.4741 41.7121 21 40.5675 21 39.374V39.374Z" fill="#595A6D"/>
<path d="M30 16.874V25.874H34.5C35.6935 25.874 36.8381 25.3999 37.682 24.556C38.5259 23.7121 39 22.5675 39 21.374C39 20.1805 38.5259 19.036 37.682 18.192C36.8381 17.3481 35.6935 16.874 34.5 16.874H30Z" fill="#595A6D"/>
<path d="M21 21.374C21 22.5675 21.4741 23.7121 22.318 24.556C23.1619 25.3999 24.3065 25.874 25.5 25.874H30V16.874H25.5C24.3065 16.874 23.1619 17.3481 22.318 18.192C21.4741 19.036 21 20.1805 21 21.374V21.374Z" fill="#484952"/>
<path d="M21 30.374C21 31.5675 21.4741 32.7121 22.318 33.556C23.1619 34.3999 24.3065 34.874 25.5 34.874H30V25.874H25.5C24.3065 25.874 23.1619 26.3481 22.318 27.192C21.4741 28.036 21 29.1805 21 30.374V30.374Z" fill="#404152"/>
</g>
<defs>
<clipPath id="clip0">
<rect width="18" height="27" fill="white" transform="translate(21 16.874)"/>
</clipPath>
</defs>
</svg>
