<svg width="125" height="33" viewBox="0 0 125 33" fill="none" xmlns="http://www.w3.org/2000/svg">
<path d="M11.7297 0.997803C10.0079 0.997803 8.50134 2.39676 8.50134 4.22617C8.50134 5.94797 9.9003 7.45454 11.7297 7.45454H14.9581V4.22617C14.8505 2.39676 13.4515 0.997803 11.7297 0.997803Z" fill="#AAAAB7"/>
<path d="M11.7297 9.49927H3.22837C1.50657 9.49927 0 10.8982 0 12.7276C0 14.4494 1.39896 15.956 3.22837 15.956H11.7297C13.4515 15.956 14.9581 14.557 14.9581 12.7276C14.8505 10.8982 13.4515 9.49927 11.7297 9.49927Z" fill="#AAAAB7"/>
<path d="M31.8532 12.62C31.8532 10.8982 30.4543 9.3916 28.6249 9.3916C26.9031 9.3916 25.3965 10.7906 25.3965 12.62V15.8483H28.6249C30.4543 15.8483 31.8532 14.4494 31.8532 12.62Z" fill="#AAAAB7"/>
<path d="M20.2311 15.8483C21.9529 15.8483 23.4594 14.4493 23.4594 12.6199V4.11851C23.4594 2.39671 22.0605 0.890137 20.2311 0.890137C18.5093 0.890137 17.0027 2.2891 17.0027 4.11851V12.6199C17.0027 14.4493 18.4016 15.8483 20.2311 15.8483Z" fill="#AAAAB7"/>
<path d="M20.2311 26.502H17.0027V29.7303C17.0027 31.4521 18.4016 32.9587 20.2311 32.9587C21.9529 32.9587 23.4594 31.5597 23.4594 29.7303C23.3518 27.9009 21.9529 26.502 20.2311 26.502Z" fill="#AAAAB7"/>
<path d="M28.7324 18.0005H20.2311C18.5093 18.0005 17.0027 19.3994 17.0027 21.2289C17.0027 22.9507 18.4016 24.4572 20.2311 24.4572H28.7324C30.4542 24.4572 31.9608 23.0583 31.9608 21.2289C31.8532 19.3994 30.4542 18.0005 28.7324 18.0005Z" fill="#AAAAB7"/>
<path d="M0 21.1214C0 22.8432 1.39896 24.3498 3.22837 24.3498C4.95017 24.3498 6.45674 22.9508 6.45674 21.1214V17.8931H3.22837C1.39896 18.0007 0 19.3996 0 21.1214Z" fill="#AAAAB7"/>
<path d="M11.7297 18.0005C10.0079 18.0005 8.50134 19.3994 8.50134 21.2289V29.7302C8.50134 31.452 9.9003 32.9586 11.7297 32.9586C13.4515 32.9586 14.9581 31.5596 14.9581 29.7302V21.2289C14.8505 19.3994 13.4515 18.0005 11.7297 18.0005Z" fill="#AAAAB7"/>
<path d="M99.7566 23.9194C99.0033 24.565 98.1424 24.8879 97.1739 24.8879C95.8826 24.8879 94.6988 24.3498 93.8379 23.1661C92.977 21.9823 92.5466 20.3681 92.5466 18.3235C92.5466 16.4941 92.977 14.8799 93.7303 13.5886C94.5912 12.2972 95.6673 11.6515 97.0663 11.6515C97.9272 11.6515 98.6805 11.9744 99.3261 12.6201C99.9718 13.2657 100.402 13.9114 100.725 14.7723L104.276 13.8038C103.953 12.2972 103.093 11.0059 101.801 9.82214C100.51 8.6384 98.8957 8.10034 96.9587 8.10034C94.376 8.10034 92.2237 9.06885 90.5019 10.8983C88.8877 12.7277 88.0269 15.2028 88.0269 18.3235C88.0269 21.4443 88.8877 23.9194 90.5019 25.7488C92.1161 27.5782 94.2684 28.5467 96.9587 28.5467C98.8957 28.5467 100.51 28.0086 101.909 26.8249C103.308 25.6412 104.276 24.2422 104.707 22.7356L101.156 21.6595C101.048 22.5204 100.51 23.2737 99.7566 23.9194Z" fill="#AAAAB7"/>
<path d="M77.158 8.20801C75.6515 8.20801 74.1449 8.53084 72.7459 9.17652C71.347 9.82219 70.1632 10.6831 69.1947 11.8668L71.7774 14.0191C73.284 12.2973 75.1134 11.4364 77.2657 11.4364C78.3418 11.4364 79.3103 11.6516 79.956 12.1897C80.6016 12.7277 80.9245 13.481 80.9245 14.3419V15.418C80.1712 15.6333 78.7722 15.9561 76.8352 16.1713C71.4546 16.9246 68.7643 19.1845 68.7643 22.7357C68.7643 24.3499 69.41 25.7488 70.5937 26.8249C71.7774 27.9011 73.3916 28.4391 75.5439 28.4391C76.8352 28.4391 78.0189 28.1163 78.9875 27.5782C79.956 26.9326 80.7093 26.2869 81.0321 25.426V27.7935H85.1214V15.9561C85.1214 13.481 84.4757 11.544 83.2919 10.145C82.1082 8.85368 80.0636 8.20801 77.158 8.20801ZM80.9245 20.2606C80.9245 21.6596 80.494 22.8433 79.5255 23.7042C78.557 24.5651 77.4809 24.9955 76.1895 24.9955C75.221 24.9955 74.4677 24.7803 73.9297 24.3499C73.3916 23.8118 73.0688 23.2737 73.0688 22.5204C73.0688 20.691 74.4677 19.6149 77.2657 19.1845C78.6646 18.9692 79.956 18.754 80.9245 18.5388V20.2606Z" fill="#AAAAB7"/>
<path d="M117.297 16.6017L124.4 8.74603H119.127L112.24 16.3865V0.782715H108.15V27.901H112.24V22.09L114.607 19.5073L119.88 27.901H124.83L117.297 16.6017Z" fill="#AAAAB7"/>
<path d="M51.2235 17.1398C51.1158 17.1398 50.9006 17.0322 50.6854 16.9246C49.7169 16.6018 49.0712 16.3865 48.5331 16.1713C47.9951 15.9561 47.5646 15.6333 47.0266 15.2028C46.5961 14.7724 46.3809 14.2343 46.3809 13.6962C46.3809 13.0506 46.5961 12.5125 47.1342 12.0821C47.6722 11.7592 48.4255 11.544 49.5017 11.544C51.3311 11.544 52.9453 12.4049 54.2366 14.2343L57.0345 12.6201C56.3888 11.3288 55.3127 10.2526 53.9138 9.49936C52.5148 8.63846 51.0082 8.20801 49.5017 8.20801C47.3494 8.20801 45.6276 8.74607 44.2286 9.71458C42.8297 10.6831 42.0764 12.0821 42.0764 13.8038C42.0764 14.6647 42.184 15.418 42.5069 16.0637C42.8297 16.7094 43.2601 17.2474 43.9058 17.6779C44.5515 18.1083 45.0896 18.4312 45.6276 18.754C46.1657 18.9692 46.8113 19.2921 47.6722 19.5073C47.7799 19.5073 47.8875 19.6149 48.1027 19.6149C49.1788 19.9378 50.0397 20.2606 50.5778 20.4758C51.1158 20.691 51.6539 21.0139 52.192 21.4443C52.73 21.8748 52.9453 22.3052 52.9453 22.9509C52.9453 23.5966 52.6224 24.2422 51.9767 24.5651C51.3311 24.9955 50.5778 25.2108 49.5017 25.2108C47.3494 25.2108 45.6276 24.2422 44.3363 22.3052L41.3231 24.027C42.0764 25.426 43.1525 26.6097 44.6591 27.363C46.1657 28.2239 47.7799 28.5467 49.6093 28.5467C51.9767 28.5467 53.9138 28.0087 55.2051 26.9326C56.4965 25.8564 57.2497 24.4575 57.2497 22.9509C57.1421 20.3682 55.2051 18.4312 51.2235 17.1398Z" fill="#AAAAB7"/>
<path d="M64.9979 0.782715H60.801V27.901H64.9979V0.782715Z" fill="#AAAAB7"/>
</svg>
