<svg width="60" height="60" viewBox="0 0 60 60" fill="none" xmlns="http://www.w3.org/2000/svg">
<rect opacity="0.2" x="0.5" y="0.5" width="59" height="59" rx="19.5" stroke="white"/>
<g clip-path="url(#clip0)">
<path d="M30 29.5C30 28.3065 30.4741 27.1619 31.318 26.318C32.1619 25.4741 33.3065 25 34.5 25C35.6935 25 36.8381 25.4741 37.682 26.318C38.5259 27.1619 39 28.3065 39 29.5C39 30.6935 38.5259 31.8381 37.682 32.682C36.8381 33.5259 35.6935 34 34.5 34C33.3065 34 32.1619 33.5259 31.318 32.682C30.4741 31.8381 30 30.6935 30 29.5Z" fill="white"/>
<path d="M21 38.5C21 37.3065 21.4741 36.1619 22.318 35.318C23.1619 34.4741 24.3065 34 25.5 34H30V38.5C30 39.6935 29.5259 40.8381 28.682 41.682C27.8381 42.5259 26.6935 43 25.5 43C24.3065 43 23.1619 42.5259 22.318 41.682C21.4741 40.8381 21 39.6935 21 38.5V38.5Z" fill="white"/>
<path d="M30 16V25H34.5C35.6935 25 36.8381 24.5259 37.682 23.682C38.5259 22.8381 39 21.6935 39 20.5C39 19.3065 38.5259 18.1619 37.682 17.318C36.8381 16.4741 35.6935 16 34.5 16H30Z" fill="#DFDFDF"/>
<path d="M21 20.5C21 21.6935 21.4741 22.8381 22.318 23.682C23.1619 24.5259 24.3065 25 25.5 25H30V16H25.5C24.3065 16 23.1619 16.4741 22.318 17.318C21.4741 18.1619 21 19.3065 21 20.5V20.5Z" fill="white"/>
<path d="M21 29.5C21 30.6935 21.4741 31.8381 22.318 32.682C23.1619 33.5259 24.3065 34 25.5 34H30V25H25.5C24.3065 25 23.1619 25.4741 22.318 26.318C21.4741 27.1619 21 28.3065 21 29.5V29.5Z" fill="#DFDFDF"/>
</g>
<defs>
<clipPath id="clip0">
<rect width="18" height="27" fill="white" transform="translate(21 16)"/>
</clipPath>
</defs>
</svg>
